<?xml version="1.0" standalone="no"?>
<!DOCTYPE svg PUBLIC "-//W3C//DTD SVG 1.1//EN" "http://www.w3.org/Graphics/SVG/1.1/DTD/svg11.dtd" >
<svg xmlns="http://www.w3.org/2000/svg">
<metadata>
This is a custom SVG font generated by IcoMoon.
<iconset grid="16"></iconset>
</metadata>
<defs>
<font id="icomoon" horiz-adv-x="512" >
<font-face units-per-em="512" ascent="480" descent="-32" />
<missing-glyph horiz-adv-x="512" />
<glyph unicode="&#xe000;" d="M 512.00,192.00L 416.00,288.00L 416.00,384.00L 352.00,384.00L 352.00,352.00L 256.00,448.00L0.00,192.00L 64.00,192.00L 64.00,0.00L 224.00,0.00L 224.00,128.00L 288.00,128.00L 288.00,0.00L 448.00,0.00L 448.00,192.00 	z"  />
<glyph unicode="&#xe002;" d="M 448.00,352.00L 448.00,416.00 L0.00,416.00 l0.00-352.00 c0.00-17.673, 14.327-32.00, 32.00-32.00l 432.00,0.00 c 26.511,0.00, 48.00,21.489, 48.00,48.00L 512.00,352.00 L 448.00,352.00 z M 416.00,64.00L 32.00,64.00 L 32.00,384.00 l 384.00,0.00 L 416.00,64.00 zM 64.00,320.00L 384.00,320.00L 384.00,288.00L 64.00,288.00zM 256.00,256.00L 384.00,256.00L 384.00,224.00L 256.00,224.00zM 256.00,192.00L 384.00,192.00L 384.00,160.00L 256.00,160.00zM 256.00,128.00L 352.00,128.00L 352.00,96.00L 256.00,96.00zM 64.00,256.00L 224.00,256.00L 224.00,96.00L 64.00,96.00z"  />
<glyph unicode="&#xe003;" d="M0.00,416.00l0.00-384.00 l 512.00,0.00 L 512.00,416.00 L0.00,416.00 z M 96.00,64.00L 32.00,64.00 l0.00,64.00 l 64.00,0.00 L 96.00,64.00 z M 96.00,192.00L 32.00,192.00 l0.00,64.00 l 64.00,0.00 L 96.00,192.00 z M 96.00,320.00L 32.00,320.00 L 32.00,384.00 l 64.00,0.00 L 96.00,320.00 z M 384.00,64.00L 128.00,64.00 L 128.00,384.00 l 256.00,0.00 L 384.00,64.00 z
		 M 480.00,64.00l-64.00,0.00 l0.00,64.00 l 64.00,0.00 L 480.00,64.00 z M 480.00,192.00l-64.00,0.00 l0.00,64.00 l 64.00,0.00 L 480.00,192.00 z M 480.00,320.00l-64.00,0.00 L 416.00,384.00 l 64.00,0.00 L 480.00,320.00 zM 192.00,320.00L 192.00,128.00L 320.00,224.00 	z"  />
<glyph unicode="&#xe004;" d="M 393.416,283.614c-29.516,0.00-56.043-12.298-74.926-32.347c-7.998-8.492-21.881-18.556-36.90-27.405
	c 7.055,26.934, 29.338,60.85, 44.814,75.728c 19.82,19.085, 31.992,45.915, 31.992,75.75C 358.399,432.787, 312.658,479.388, 256.002,480.00
	c-56.66-0.611-102.398-47.213-102.398-104.659c0.00-29.836, 12.172-56.665, 31.993-75.75c 15.477-14.878, 37.76-48.794, 44.814-75.728
	c-15.021,8.85-28.903,18.913-36.90,27.405c-18.884,20.049-45.41,32.347-74.925,32.347c-57.193,0.00-103.54-46.832-103.54-104.664
	c0.00-57.819, 46.346-104.669, 103.54-104.669c 29.521,0.00, 56.041,12.678, 74.925,32.726c 8.402,8.936, 23.222,20.069, 39.146,29.316
	c-1.501-73.846-36.766-128.084-72.659-149.453L 159.998-32.00 l 96.005,0.00 l 96.002,0.00 l0.00,18.87 c-35.896,21.368-71.16,75.608-72.66,149.453
	c 15.926-9.247, 30.744-20.384, 39.146-29.316c 18.883-20.047, 45.404-32.726, 74.926-32.726c 57.193,0.00, 103.539,46.85, 103.539,104.669
	C 496.955,236.782, 450.61,283.614, 393.416,283.614z"  />
<glyph unicode="&#xe005;" d="M 256.00,480.00L 96.00,224.00L 256.00-32.00L 416.00,224.00 z"  />
<glyph unicode="&#xe006;" d="M 408.785,305.925C 312.002,377.854, 278.652,435.434, 256.002,479.999l0.00,0.00C 256.00,479.999, 256.00,480.00, 256.00,480.00l0.00-0.001 
	c-22.648-44.565-56.00-102.146-152.783-174.074c-165.018-122.643-9.688-293.834, 126.879-199.612
	c-8.898-58.465-39.265-101.086-70.104-119.441L 159.992-32.00 l 96.008,0.00 l 96.008,0.00 l0.00,18.87 c-30.841,18.354-61.205,60.977-70.106,119.442
	C 418.47,12.089, 573.802,183.282, 408.785,305.925z"  />
<glyph unicode="&#xe007;" d="M0.00,416.00l0.00-384.00 l 512.00,0.00 L 512.00,416.00 L0.00,416.00 z M 480.00,64.00l-32.00,0.00 l-96.00,144.00l-64.00-48.00L 160.00,320.00L 64.00,64.00L 32.00,64.00 L 32.00,384.00 l 448.00,0.00 L 480.00,64.00 zM 352.00,304.00A48.00,48.00 10260.00 1,0 448.00,304A48.00,48.00 10260.00 1,0 352.00,304z"  />
<glyph unicode="&#xe008;" d="M 256.00-32.00L 256.00,192.00L 32.00,192.00 	zM 32.00,480.00L 32.00,224.00L 288.00,224.00L 288.00-32.00L 480.00-32.00L 480.00,480.00 	z"  />
<glyph unicode="&#xe009;" d="M 256.00,480.00C 114.615,480.00,0.00,365.385,0.00,224.00s 114.615-256.00, 256.00-256.00s 256.00,114.615, 256.00,256.00S 397.385,480.00, 256.00,480.00z M 160.00,224.00
	c0.00,53.02, 42.98,96.00, 96.00,96.00s 96.00-42.98, 96.00-96.00s-42.98-96.00-96.00-96.00S 160.00,170.98, 160.00,224.00z M 462.99,138.262L 462.99,138.262l-88.71,36.745
	C 380.539,190.099, 384.00,206.645, 384.00,224.00s-3.461,33.901-9.72,48.993l 61.063,25.293l 27.647,11.452C 473.944,283.327, 480.00,254.373, 480.00,224.00
	C 480.00,193.627, 473.943,164.673, 462.99,138.262L 462.99,138.262z M 341.739,430.99L 341.739,430.99L 341.739,430.99l-36.745-88.71
	C 289.902,348.539, 273.356,352.00, 256.00,352.00s-33.901-3.461-48.993-9.72l-17.23,41.599l-19.515,47.112C 196.673,441.943, 225.628,448.00, 256.00,448.00
	C 286.373,448.00, 315.327,441.943, 341.739,430.99z M 49.01,309.738l 47.112-19.515l 41.599-17.23C 131.462,257.901, 128.00,241.355, 128.00,224.00
	s 3.461-33.901, 9.72-48.993l-88.71-36.745C 38.057,164.673, 32.00,193.627, 32.00,224.00C 32.00,254.373, 38.057,283.327, 49.01,309.738z
	 M 170.262,17.01l 11.452,27.647l 25.293,61.063C 222.099,99.461, 238.645,96.00, 256.00,96.00s 33.901,3.461, 48.993,9.72l 36.745-88.71l0.00,0.00l0.00,0.00
	C 315.327,6.058, 286.373,0.00, 256.00,0.00C 225.628,0.00, 196.673,6.057, 170.262,17.01z"  />
<glyph unicode="&#xe00a;" d="M 288.00,480.00L0.00,192.00l 224.00-224.00l 288.00,288.00L 512.00,480.00 L 288.00,480.00 z M 416.00,337.60c-25.626,0.00-46.399,20.773-46.399,46.40S 390.374,430.40, 416.00,430.40
	s 46.40-20.773, 46.40-46.40S 441.626,337.60, 416.00,337.60z"  />
<glyph unicode="&#xe00b;" d="M 492.25,352.00L 19.75,352.00 c-13.20,0.00-21.882-10.59-19.293-23.534l 58.836-272.932C 61.882,42.59, 74.80,32.00, 88.00,32.00l 336.00,0.00 
		c 13.20,0.00, 26.118,10.59, 28.707,23.534l 58.836,272.932C 514.132,341.41, 505.45,352.00, 492.25,352.00zM 448.00,392.00c0.00,13.255-10.745,24.00-24.00,24.00L 208.00,416.00 l-16.00,32.00L 88.00,448.00 c-13.255,0.00-24.00-10.745-24.00-24.00l0.00-56.00 l 384.00,0.00 L 448.00,392.00 z"  />
<glyph unicode="&#xe00f;" d="M 256.00,480.00C 114.615,480.00,0.00,365.385,0.00,224.00s 114.615-256.00, 256.00-256.00s 256.00,114.615, 256.00,256.00S 397.385,480.00, 256.00,480.00z M 256.00,0.00
		C 132.288,0.00, 32.00,100.288, 32.00,224.00S 132.288,448.00, 256.00,448.00s 224.00-100.288, 224.00-224.00S 379.712,0.00, 256.00,0.00zM 128.00,96.00l 169.373,79.17L 384.00,352.00l-173.255-82.745L 128.00,96.00z M 256.00,256.00c 17.673,0.00, 32.00-14.327, 32.00-32.00c0.00-17.673-14.327-32.00-32.00-32.00
		c-17.673,0.00-32.00,14.327-32.00,32.00C 224.00,241.673, 238.327,256.00, 256.00,256.00z"  />
<glyph unicode="&#xe010;" d="M 256.00,352.00L 256.00,192.00L 384.00,192.00L 384.00,224.00L 288.00,224.00L 288.00,352.00 	zM 288.00,448.00C 164.288,448.00, 64.00,347.712, 64.00,224.00L0.00,224.00 l 80.00-96.00l 80.00,96.00L 96.00,224.00 c0.00,106.039, 85.961,192.00, 192.00,192.00c 106.039,0.00, 192.00-85.961, 192.00-192.00
		c0.00-106.039-85.961-192.00-192.00-192.00c-10.904,0.00-21.592,0.923-32.00,2.67l0.00-32.385 c 10.453-1.495, 21.134-2.285, 32.00-2.285
		c 123.712,0.00, 224.00,100.288, 224.00,224.00S 411.712,448.00, 288.00,448.00z"  />
<glyph unicode="&#xe012;" d="M 240.00,448.00C 107.452,448.00,0.00,340.548,0.00,208.00c0.00-132.549, 107.452-240.00, 240.00-240.00c 132.549,0.00, 240.00,107.451, 240.00,240.00
		C 480.00,340.548, 372.549,448.00, 240.00,448.00z M 240.00,0.00c-114.875,0.00-208.00,93.125-208.00,208.00S 125.125,416.00, 240.00,416.00s 208.00-93.125, 208.00-208.00
		S 354.875,0.00, 240.00,0.00zM 256.00,253.258L 256.00,384.00 l-32.00,0.00 l0.00-130.742 c-18.641-6.59-32.00-24.36-32.00-45.258c0.00-26.51, 21.49-48.00, 48.00-48.00c 20.898,0.00, 38.667,13.359, 45.258,32.00
		L 384.00,192.00 l0.00,32.00 l-98.742,0.00 C 280.438,237.635, 269.636,248.437, 256.00,253.258z"  />
<glyph unicode="&#xe015;" d="M 380.931-32.00C 437.794,71.016, 447.375,228.153, 224.00,222.912L 224.00,96.00 L 32.00,288.00L 224.00,480.00l0.00-124.186 
	C 491.481,362.785, 521.285,119.707, 380.931-32.00z"  />
<glyph unicode="&#xe016;" d="M 288.00,355.814L 288.00,480.00 l 192.00-192.00L 288.00,96.00L 288.00,222.912 C 64.625,228.153, 74.206,71.016, 131.07-32.00
	C-9.286,119.707, 20.52,362.785, 288.00,355.814z"  />
<glyph unicode="&#xe017;" d="M 131.07,480.00C 74.206,376.984, 64.625,219.848, 288.00,225.088L 288.00,352.00 l 192.00-192.00L 288.00-32.00L 288.00,92.186 C 20.52,85.215-9.286,328.293, 131.07,480.00z"  />
<glyph unicode="&#xe018;" d="M 224.00,92.186L 224.00-32.00 L 32.00,160.00l 192.00,192.00l0.00-126.912 C 447.375,219.848, 437.794,376.984, 380.931,480.00
	C 521.286,328.293, 491.481,85.215, 224.00,92.186z"  />
<glyph unicode="&#xe019;" d="M 255.993,471.963C 114.606,471.963, 0.001,385.424, 0.001,278.684c0.00-83.391, 69.951-154.469, 167.963-181.565
	c 1.438-8.104, 3.25-19.646, 3.25-26.787c0.00-33.625-12.867-65.518-35.788-94.295c 35.444,14.928, 85.475,62.898, 116.473,109.432
	c 1.367-0.016, 2.729-0.084, 4.095-0.084c 141.40,0.00, 256.007,86.539, 256.007,193.299C 512.002,385.424, 397.395,471.963, 255.993,471.963z"  />
<glyph unicode="&#xe01a;" d="M 512.00,176.00c0.00,31.984-26.282,59.581-64.259,72.383c-3.818-58.182-51.143-108.229-119.261-133.935
		c 12.653-7.509, 27.651-13.072, 44.103-16.029c 11.884-27.769, 30.681-54.436, 53.733-71.93c-12.468,24.473-13.195,48.944-8.824,70.484
		C 471.038,102.973, 512.00,136.068, 512.00,176.00zM 416.00,256.00c0.00,70.692-85.961,128.00-192.00,128.00C 117.962,384.00, 32.00,326.692, 32.00,256.00c0.00-52.637, 47.664-97.845, 115.781-117.509
		c 10.66-26.364, 16.668-61.164-1.062-95.967c 26.945,20.448, 48.081,53.424, 59.146,86.048C 211.837,128.199, 217.883,128.00, 224.00,128.00
		C 330.039,128.00, 416.00,185.308, 416.00,256.00z"  />
<glyph unicode="&#xe01c;" d="M 364.496,224.00C 433.373,267.667, 480.00,351.604, 480.00,448.00c0.00,10.838-0.596,21.517-1.739,32.00L 33.74,480.00 C 32.595,469.516, 32.00,458.837, 32.00,448.00
		c0.00-96.396, 46.627-180.333, 115.503-224.00C 78.627,180.333, 32.00,96.396, 32.00,0.00c0.00-10.838, 0.595-21.517, 1.739-32.00l 444.521,0.00 
		c 1.144,10.483, 1.739,21.162, 1.739,32.00C 480.00,96.396, 433.373,180.333, 364.496,224.00z M 80.00,0.00c0.00,93.456, 40.081,172.707, 112.00,198.854
		l0.00,50.293 l0.00,0.00 C 120.081,275.292, 80.00,354.543, 80.00,448.00l0.00,0.00 l 352.00,0.00 l0.00,0.00 c0.00-93.457-40.081-172.708-112.00-198.853l0.00-50.293 
		C 391.919,172.707, 432.00,93.456, 432.00,0.00L 80.00,0.00 zM 309.813,145.203c-35.827,20.322-37.804,46.684-37.813,62.683L 272.00,240.00 c0.00,15.997, 1.902,42.457, 37.872,62.832
		c 19.252,11.182, 35.904,28.174, 48.524,49.168L 153.605,352.00 c 12.633-21.016, 29.306-38.021, 48.583-49.203
		c 35.827-20.322, 37.803-46.683, 37.813-62.683L 240.001,208.00 c0.00-15.996-1.902-42.457-37.872-62.832c-36.311-21.09-63.369-62.842-71.545-113.168
		l 250.835,0.00 C 373.237,82.354, 346.154,124.124, 309.813,145.203z"  />
<glyph unicode="&#xe01d;" d="M 192.00,416.00A64.00,64.00 10260.00 1,0 320.00,416A64.00,64.00 10260.00 1,0 192.00,416zM 327.765,359.765A64.00,64.00 10260.00 1,0 455.765,359.765A64.00,64.00 10260.00 1,0 327.765,359.765zM 416.00,224.00A32.00,32.00 10260.00 1,0 480.00,224A32.00,32.00 10260.00 1,0 416.00,224zM 359.765,88.235A32.00,32.00 10260.00 1,0 423.765,88.23500000000001A32.00,32.00 10260.00 1,0 359.765,88.23500000000001zM 224.001,32.00A32.00,32.00 10260.00 1,0 288.001,32A32.00,32.00 10260.00 1,0 224.001,32zM 88.236,88.235A32.00,32.00 10260.00 1,0 152.236,88.23500000000001A32.00,32.00 10260.00 1,0 88.236,88.23500000000001zM 72.236,359.765A48.00,48.00 10260.00 1,0 168.236,359.765A48.00,48.00 10260.00 1,0 72.236,359.765zM 28.00,224.00A36.00,36.00 10260.00 1,0 100.00,224A36.00,36.00 10260.00 1,0 28.00,224z"  />
<glyph unicode="&#xe022;" d="M 352.00,480.00c-88.365,0.00-160.00-71.634-160.00-160.00c0.00-10.013, 0.929-19.808, 2.688-29.312L0.00,96.00l0.00-96.00 c0.00-17.673, 14.327-32.00, 32.00-32.00
	l 32.00,0.00 l0.00,32.00 l 64.00,0.00 l0.00,64.00 l 64.00,0.00 l0.00,64.00 l 64.00,0.00 l 41.521,41.521C 314.526,163.363, 332.869,160.00, 352.00,160.00c 88.365,0.00, 160.00,71.634, 160.00,160.00S 440.365,480.00, 352.00,480.00z
	 M 399.937,319.937c-26.51,0.00-48.00,21.49-48.00,48.00s 21.49,48.00, 48.00,48.00s 48.00-21.49, 48.00-48.00S 426.447,319.937, 399.937,319.937z"  />
<glyph unicode="&#xe025;" d="M 507.882,411.883L 448.00,352.00l-64.00,64.00l 59.882,59.883C 435.057,478.557, 425.698,480.00, 416.00,480.00c-53.021,0.00-96.00-42.98-96.00-96.00
	c0.00-9.697, 1.442-19.057, 4.116-27.882L 123.882,155.883C 115.057,158.557, 105.698,160.00, 96.00,160.00c-53.021,0.00-96.00-42.98-96.00-96.00
	c0.00-9.697, 1.442-19.058, 4.117-27.882L 64.00,96.00l 64.00-64.00l-59.883-59.882C 76.943-30.556, 86.302-32.00, 96.00-32.00c 53.02,0.00, 96.00,42.981, 96.00,96.00
	c0.00,9.698-1.444,19.059-4.118,27.883l 200.234,200.235C 396.943,289.444, 406.302,288.00, 416.00,288.00c 53.02,0.00, 96.00,42.981, 96.00,96.00
	C 512.00,393.698, 510.556,403.058, 507.882,411.883z"  />
<glyph unicode="&#xe026;" d="M 466.895,174.875c-26.863,46.527-10.708,106.152, 36.076,133.244l-50.313,87.146c-14.375-8.427-31.088-13.259-48.923-13.259
	c-53.768,0.00-97.354,43.873-97.354,97.995L 205.752,480.001 c 0.133-16.705-4.037-33.641-12.979-49.126
	c-26.862-46.528-86.578-62.351-133.431-35.379L 9.03,308.35c 14.485-8.236, 27.025-20.294, 35.943-35.739
	c 26.819-46.454, 10.756-105.96-35.854-133.112l 50.313-87.146c 14.325,8.348, 30.958,13.127, 48.70,13.127
	c 53.598,0.00, 97.072-43.596, 97.35-97.479l 100.627,0.00 c-0.043,16.537, 4.136,33.285, 12.983,48.609
	c 26.818,46.453, 86.388,62.297, 133.207,35.506l 50.313,87.145C 488.222,147.494, 475.766,159.51, 466.895,174.875z M 256.00,120.334
	c-57.254,0.00-103.668,46.412-103.668,103.667c0.00,57.254, 46.413,103.667, 103.668,103.667c 57.254,0.00, 103.666-46.413, 103.666-103.667
	C 359.665,166.746, 313.254,120.334, 256.00,120.334z"  />
<glyph unicode="&#xe028;" d="M0.00,64.00L 512.00,64.00L 512.00,0.00L0.00,0.00zM 64.00,192.00L 128.00,192.00L 128.00,96.00L 64.00,96.00zM 160.00,320.00L 224.00,320.00L 224.00,96.00L 160.00,96.00zM 256.00,224.00L 320.00,224.00L 320.00,96.00L 256.00,96.00zM 352.00,416.00L 416.00,416.00L 416.00,96.00L 352.00,96.00z"  />
<glyph unicode="&#xe029;" d="M 320.00,320.00l 96.00,64.00L 320.00,480.00l-60.00-140.00L 224.00,448.00l-96.00-64.00l 80.00-64.00L 32.00,320.00 l0.00-128.00 l 32.00,0.00 l0.00-224.00 l 384.00,0.00 L 448.00,192.00 l 32.00,0.00 L 480.00,320.00 L 320.00,320.00 z M 328.096,437.963l 50.233-50.233
	l-100.467-66.978L 328.096,437.963z M 211.168,410.601l 28.364-85.092l-70.91,56.728L 211.168,410.601z M 224.00,0.00L 96.00,0.00 L 96.00,208.00 l 128.00,0.00 L 224.00,0.00 z M 224.00,224.00
	L 64.00,224.00 l0.00,64.00 l 160.00,0.00 L 224.00,224.00 z M 416.00,0.00L 288.00,0.00 L 288.00,208.00 l 128.00,0.00 L 416.00,0.00 z M 448.00,224.00L 288.00,224.00 l0.00,64.00 l 160.00,0.00 L 448.00,224.00 z"  />
<glyph unicode="&#xe02a;" d="M 256.00,352.00C 114.615,352.00,0.00,237.386,0.00,96.00l 32.00,0.00 c0.00,58.209, 25.903,110.363, 66.811,145.574l 108.423-135.527
	c-0.665-3.245-1.014-6.604-1.014-10.047c0.00-27.492, 22.287-49.779, 49.779-49.779c 27.493,0.00, 49.779,22.287, 49.779,49.779
	s-22.286,49.781-49.779,49.781c-3.441,0.00-6.802-0.351-10.046-1.016L 111.979,251.947c 31.528,22.688, 70.213,36.054, 112.021,36.054
	c 106.038,0.00, 192.00-85.96, 192.00-191.999l 96.00,0.00 C 512.00,237.386, 397.385,352.00, 256.00,352.00z"  />
<glyph unicode="&#xe02b;" d="M 160.504-32.00C 51.878,29.221, 23.279,87.168, 39.63,166.311c 12.071,58.44, 56.647,105.986, 60.437,164.314
	c 16.884-30.726, 18.888-52.882, 20.775-84.99C 174.542,311.428, 230.231,399.478, 218.19,480.00c0.00,0.00, 133.808-64.00, 142.986-188.138
	c 12.041,25.587, 12.041,66.225,0.00,92.563c 36.122-26.339, 253.609-260.16-22.577-416.425c 51.926,101.105, 13.396,237.527-76.761,300.533
	c 6.021-27.092-1.505-97.832-41.391-142.232c 9.031,45.904-13.546,75.254-13.546,75.254s-7.402-41.555-36.122-83.533
	C 144.553,79.689, 126.381,39.004, 160.504-32.00z"  />
<glyph unicode="&#xe02c;" d="M 96.00-32.00L 416.00-32.00L 448.00,320.00L 64.00,320.00 	zM 320.00,416.00L 320.00,480.00 L 192.00,480.00 l0.00-64.00 L 32.00,416.00 l0.00-96.00 l 32.00,32.00l 384.00,0.00 l 32.00-32.00L 480.00,416.00 L 320.00,416.00 z M 288.00,416.00l-64.00,0.00 L 224.00,448.00 l 64.00,0.00 L 288.00,416.00 z"  />
<glyph unicode="&#xe02d;" d="M 352.00,480.00L 64.00,192.00L 240.00,192.00L 160.00-32.00L 448.00,256.00L 272.00,256.00 z"  />
<glyph unicode="&#xe031;" d="M 96.00,480.00L 96.00-32.00L 256.00,128.00L 416.00-32.00L 416.00,480.00 z"  />
<glyph unicode="&#xe032;" d="M 96.00,480.00l0.00-512.00 l 160.00,160.00l 160.00-160.00L 416.00,480.00 L 96.00,480.00 z M 384.00,45.255l-128.00,128.00l-128.00-128.00L 128.00,448.00 l 256.00,0.00 L 384.00,45.255 z"  />
<glyph unicode="&#xe033;" d="M 256.00,370.437l 30.00-92.329l 7.185-22.111l 23.249,0.00 l 97.081,0.00 l-78.541-57.063l-18.809-13.666l 7.185-22.111l 29.999-92.329
	l-78.539,57.062L 256.00,141.554l-18.809-13.665l-78.54-57.062l 30.00,92.329l 7.184,22.111l-18.809,13.666l-78.541,57.063l 97.082,0.00 l 23.25,0.00 
	L 226.00,278.107L 256.00,370.437 M 256.00,473.991l-60.433-185.995L0.00,287.996 l 158.217-114.952L 97.783-12.951L 256.00,102.00l 158.216-114.95l-60.433,185.994
	L 512.00,287.996L 316.434,287.996 L 256.00,473.991L 256.00,473.991z"  />
<glyph unicode="&#xe034;" d="M 512.00,287.996L 316.434,287.996L 256.00,473.991L 195.567,287.996L0.00,287.996L 158.217,173.044L 97.783-12.951L 256.00,102.00L 414.216-12.95L 353.783,173.044 z"  />
<glyph unicode="&#xe035;" d="M 472.166,408.167c-53.111,53.111-139.222,53.111-192.333,0.00c-9.729-9.729-17.669-20.569-23.833-32.107
	c-6.165,11.538-14.104,22.378-23.833,32.107c-53.111,53.111-139.222,53.111-192.333,0.00c-53.111-53.111-53.111-139.222,0.00-192.333
	L 256.00,0.00l 216.166,215.833C 525.277,268.944, 525.277,355.055, 472.166,408.167z"  />
<glyph unicode="&#xe036;" d="M 376.00,416.00c 27.779,0.00, 53.896-10.818, 73.539-30.46c 40.549-40.55, 40.549-106.529, 0.017-147.061L 256.00,45.22L 62.46,238.46
	c-40.549,40.55-40.549,106.529,0.00,147.079C 82.104,405.182, 108.22,416.00, 136.00,416.00c 27.779,0.00, 53.896-10.818, 73.538-30.459
	c 7.288-7.289, 13.424-15.552, 18.237-24.561L 256.00,308.153l 28.224,52.826c 4.813,9.009, 10.949,17.272, 18.236,24.56
	C 322.104,405.182, 348.221,416.00, 376.00,416.00 M 376.00,448.00c-34.806,0.00-69.611-13.277-96.167-39.833c-9.729-9.729-17.669-20.569-23.833-32.107
	c-6.165,11.538-14.104,22.378-23.833,32.107C 205.611,434.722, 170.805,448.00, 136.00,448.00c-34.806,0.00-69.611-13.277-96.167-39.833
	c-53.111-53.111-53.111-139.222,0.00-192.333L 256.00,0.00l 216.166,215.833c 53.111,53.111, 53.111,139.222,0.00,192.333
	C 445.61,434.722, 410.805,448.00, 376.00,448.00L 376.00,448.00z"  />
<glyph unicode="&#xe037;" d="M 446.141,117.407c 0.852,10.12, 21.951,23.983, 21.934,34.12c-0.049,10.643-18.482,28.455-17.086,39.007
	c 1.104,8.37, 16.555,20.793, 17.059,29.245c 0.898,15.353-19.852,45.40-34.119,51.174c-22.643,9.168-137.705,4.883-137.705,4.883
	c-11.246,19.653, 20.035,68.201, 28.639,89.162c 12.631,30.719, 10.504,71.466-5.471,92.399C 299.879,482.98, 264.063,484.68, 263.325,473.238
	c-5.336-83.01-21.229-106.053-42.505-122.455c-12.786-9.863-23.954-18.497-29.854-33.528
	c-36.261-92.354-65.52-122.037-79.528-125.254L 64.00,192.001 l0.00-198.885 l 145.721-19.501c0.00,0.00, 133.455-12.632, 175.482,0.00
	c 13.223,3.966, 36.039,23.818, 41.432,36.556c 3.074,7.315-1.197,24.622, 2.443,31.677c 5.371,10.458, 28.051,23.559, 28.027,37.771
	C 457.082,89.754, 445.276,107.298, 446.141,117.407z"  />
<glyph unicode="&#xe038;" d="M 468.051,228.233c-0.50,8.447-15.959,20.854-17.063,29.237c-1.398,10.544, 17.047,28.369, 17.076,39.00
	c 0.023,10.137-21.072,24.002-21.93,34.127c-0.861,10.104, 10.953,27.644, 10.969,37.781c 0.025,14.216-22.658,27.314-28.033,37.771
	c-3.631,7.059, 0.643,24.368-2.443,31.681c-5.385,12.739-28.203,32.595-41.414,36.556c-42.035,12.629-175.483,0.00-175.483,0.00L 64.00,454.89
	L 64.00,256.00 l 47.445,0.00 c 13.993-7.782, 43.261-32.282, 79.526-124.636c 5.90-15.034, 17.073-24.288, 29.854-34.143
	c 21.282-16.406, 37.157-39.442, 42.493-122.459c 0.743-11.443, 36.557-9.74, 56.064,15.837c 15.975,20.931, 18.109,61.682, 5.484,92.402
	c-8.604,20.962-39.895,69.511-28.643,89.171c0.00,0.00, 115.066-4.285, 137.701,4.871C 448.192,182.817, 468.942,212.873, 468.051,228.233z"  />
<glyph unicode="&#xe039;" d="M 256.001,480.00C 114.615,480.00,0.00,365.386,0.00,224.00c0.00-141.385, 114.614-256.00, 256.001-256.00C 397.386-32.00, 512.00,82.615, 512.00,224.00
	C 512.00,365.386, 397.386,480.00, 256.001,480.00z M 336.001,365.256c 12.495,0.00, 22.627-20.262, 22.627-45.256c0.00-24.993-10.132-45.255-22.627-45.255
	c-12.498,0.00-22.629,20.262-22.629,45.255C 313.372,344.994, 323.503,365.256, 336.001,365.256z M 176.001,365.256
	c 12.496,0.00, 22.627-20.262, 22.627-45.256c0.00-24.993-10.131-45.255-22.627-45.255c-12.498,0.00-22.628,20.262-22.628,45.255
	C 153.373,344.994, 163.503,365.256, 176.001,365.256z M 256.001,64.00C 172.566,64.00, 103.289,133.936, 96.00,223.152
	c 46.885-27.057, 102.025-42.532, 160.001-42.532c 57.974,0.00, 113.114,15.403, 160.00,42.46C 408.712,133.861, 339.435,64.00, 256.001,64.00z"  />
<glyph unicode="&#xe03a;" d="M 256.00,480.00C 114.615,480.00,0.00,365.385,0.00,224.00s 114.612-256.00, 256.00-256.00c 141.385,0.00, 256.00,114.615, 256.00,256.00S 397.385,480.00, 256.00,480.00z M 352.00,352.00
	c 17.673,0.00, 32.00-14.327, 32.00-32.00c0.00-17.673-14.327-32.00-32.00-32.00s-32.00,14.327-32.00,32.00C 320.00,337.673, 334.327,352.00, 352.00,352.00z M 160.00,352.00
	c 17.673,0.00, 32.00-14.327, 32.00-32.00c0.00-17.673-14.327-32.00-32.00-32.00s-32.00,14.327-32.00,32.00C 128.00,337.673, 142.327,352.00, 160.00,352.00z M 256.00,64.00
	c-58.255,0.00-109.232,31.137-137.212,77.672l 27.441,16.467C 168.612,120.909, 209.396,96.00, 256.00,96.00
	c 46.604,0.00, 87.386,24.909, 109.771,62.139l 27.441-16.467C 365.23,95.137, 314.255,64.00, 256.00,64.00z"  />
<glyph unicode="&#xe03b;" d="M 256.00,480.00C 114.615,480.00,0.00,365.385,0.00,224.00s 114.613-256.00, 256.00-256.00c 141.385,0.00, 256.00,114.615, 256.00,256.00S 397.385,480.00, 256.00,480.00z M 320.00,96.00L 192.00,96.00 l0.00,32.00 
	l 128.00,0.00 L 320.00,96.00 z M 352.00,352.00c 17.673,0.00, 32.00-14.327, 32.00-32.00c0.00-17.673-14.327-32.00-32.00-32.00s-32.00,14.327-32.00,32.00C 320.00,337.673, 334.327,352.00, 352.00,352.00z M 160.00,352.00
	c 17.673,0.00, 32.00-14.327, 32.00-32.00c0.00-17.673-14.327-32.00-32.00-32.00s-32.00,14.327-32.00,32.00C 128.00,337.673, 142.327,352.00, 160.00,352.00z"  />
<glyph unicode="&#xe03c;" d="M 256.00,480.00C 114.615,480.00,0.00,365.385,0.00,224.00s 114.615-256.00, 256.00-256.00s 256.00,114.615, 256.00,256.00S 397.385,480.00, 256.00,480.00z M 288.00,192.00l0.00-160.00 l-64.00,0.00 L 224.00,192.00 L 64.00,192.00 l0.00,64.00 
	l 160.00,0.00 L 224.00,416.00 l 64.00,0.00 l0.00-160.00 l 160.00,0.00 l0.00-64.00 L 288.00,192.00 z"  />
<glyph unicode="&#xe03d;" d="M 256.00,480.00C 114.615,480.00,0.00,365.385,0.00,224.00s 114.615-256.00, 256.00-256.00s 256.00,114.615, 256.00,256.00S 397.385,480.00, 256.00,480.00z M 64.00,192.00l0.00,64.00 l 384.00,0.00 l0.00-64.00 L 64.00,192.00 z"  />
<glyph unicode="&#xe041;" d="M 432.00,432.00L 192.00,192.00L 80.00,304.00L0.00,224.00L 192.00,32.00L 512.00,352.00 z"  />
<glyph unicode="&#xe042;" d="M0.00,272.00l0.00-96.00 c0.00-8.836, 7.164-16.00, 16.00-16.00l 480.00,0.00 c 8.836,0.00, 16.00,7.164, 16.00,16.00l0.00,96.00 c0.00,8.836-7.164,16.00-16.00,16.00L 16.00,288.00 C 7.164,288.00,0.00,280.836,0.00,272.00z"  />
<glyph unicode="&#xe043;" d="M 496.00,288.00L 320.00,288.00 L 320.00,464.00 c0.00,8.836-7.164,16.00-16.00,16.00l-96.00,0.00 c-8.836,0.00-16.00-7.164-16.00-16.00l0.00-176.00 L 16.00,288.00 c-8.836,0.00-16.00-7.164-16.00-16.00l0.00-96.00 
	c0.00-8.836, 7.164-16.00, 16.00-16.00l 176.00,0.00 l0.00-176.00 c0.00-8.836, 7.164-16.00, 16.00-16.00l 96.00,0.00 c 8.836,0.00, 16.00,7.164, 16.00,16.00L 320.00,160.00 l 176.00,0.00 c 8.836,0.00, 16.00,7.164, 16.00,16.00l0.00,96.00 
	C 512.00,280.836, 504.836,288.00, 496.00,288.00z"  />
<glyph unicode="&#xe044;" d="M 448.00,448.00L 96.00,448.00 c-17.60,0.00-32.00-14.40-32.00-32.00l0.00-128.00 l 64.00,0.00 L 128.00,384.00 l 288.00,0.00 l0.00-352.00 L 128.00,32.00 l0.00,96.00 L 64.00,128.00 l0.00-128.00 c0.00-17.60, 14.399-32.00, 32.00-32.00l 352.00,0.00 c 17.60,0.00, 32.00,14.40, 32.00,32.00L 480.00,416.00 
		C 480.00,433.60, 465.60,448.00, 448.00,448.00zM 192.00,64.00L 336.00,208.00L 192.00,352.00L 192.00,256.00L0.00,256.00L0.00,160.00L 192.00,160.00 	z"  />
<glyph unicode="&#xe045;" d="M 496.00,208.00L 352.00,352.00L 352.00,256.00L 160.00,256.00L 160.00,160.00L 352.00,160.00L 352.00,64.00 	zM 416.00,384.00L 416.00,416.00 c0.00,17.60-14.40,32.00-32.00,32.00L 32.00,448.00 C 14.40,448.00,0.00,433.60,0.00,416.00l0.00-416.00 c0.00-17.60, 14.399-32.00, 32.00-32.00l 352.00,0.00 c 17.60,0.00, 32.00,14.40, 32.00,32.00l0.00,32.00 L 64.00,32.00 L 64.00,384.00 
		L 416.00,384.00 z"  />
<glyph unicode="&#xe052;" d="M 384.00,256.00L 256.00,384.00L 128.00,256.00 	zM 128.00,160.00L 256.00,32.00L 384.00,160.00 	z"  />
<glyph unicode="&#xe053;" d="M 160.00,384.00L0.00,224.00l 160.00-160.00l 352.00,0.00 L 512.00,384.00 L 160.00,384.00 z M 469.12,145.92l-39.04-39.04L 352.00,184.96l-78.08-78.08l-39.04,39.04L 312.96,224.00
	l-78.08,78.08l 39.04,39.04L 352.00,263.04l 78.08,78.08l 39.04-39.04L 391.04,224.00L 469.12,145.92z"  />
<glyph unicode="&#xe054;" d="M 160.00,384.00L0.00,224.00l 160.00-160.00l 352.00,0.00 L 512.00,384.00 L 160.00,384.00 z M 480.00,96.00L 173.255,96.00 l-128.00,128.00l 128.00,128.00L 480.00,352.00 L 480.00,96.00 zM 288.00,128.00L 352.00,192.00L 416.00,128.00L 448.00,160.00L 384.00,224.00L 448.00,288.00L 416.00,320.00L 352.00,256.00L 288.00,320.00L 256.00,288.00L 320.00,224.00L 256.00,160.00 	z"  />
<glyph unicode="&#xe056;" d="M 352.00,192.00L 480.00,320.00L 352.00,448.00L 352.00,352.00L0.00,352.00L0.00,288.00L 352.00,288.00 	zM 160.00,160.00L 160.00,256.00L 32.00,128.00L 160.00,0.00L 160.00,96.00L 512.00,96.00L 512.00,160.00 	z"  />
<glyph unicode="&#xe057;" d="M0.00,480.00l0.00-512.00 l 512.00,0.00 L 512.00,480.00 L0.00,480.00 z M 480.00,0.00L 32.00,0.00 L 32.00,448.00 l 448.00,0.00 L 480.00,0.00 zM 384.00,352.00L 224.00,192.00L 128.00,288.00L 64.00,224.00L 224.00,64.00L 448.00,288.00 	z"  />
<glyph unicode="&#xe058;" d="M0.00,480.00l0.00-512.00 l 512.00,0.00 L 512.00,480.00 L0.00,480.00 z M 480.00,0.00L 32.00,0.00 L 32.00,448.00 l 448.00,0.00 L 480.00,0.00 z"  />
<glyph unicode="&#xe059;" d="M0.00,480.00l0.00-512.00 l 512.00,0.00 L 512.00,480.00 L0.00,480.00 z M 480.00,0.00L 32.00,0.00 L 32.00,448.00 l 448.00,0.00 L 480.00,0.00 zM 128.00,352.00L 384.00,352.00L 384.00,96.00L 128.00,96.00z"  />
<glyph unicode="&#xe05a;" d="M 256.00,480.00C 114.615,480.00,0.00,365.385,0.00,224.00s 114.615-256.00, 256.00-256.00s 256.00,114.615, 256.00,256.00S 397.385,480.00, 256.00,480.00z M 256.00,32.00
		c-106.039,0.00-192.00,85.961-192.00,192.00c0.00,106.039, 85.961,192.00, 192.00,192.00c 106.039,0.00, 192.00-85.961, 192.00-192.00C 448.00,117.961, 362.039,32.00, 256.00,32.00zM 160.00,224.00A96.00,96.00 10260.00 1,0 352.00,224A96.00,96.00 10260.00 1,0 160.00,224z"  />
<glyph unicode="&#xe05b;" d="M 256.00,480.00C 114.615,480.00,0.00,365.385,0.00,224.00s 114.615-256.00, 256.00-256.00s 256.00,114.615, 256.00,256.00S 397.385,480.00, 256.00,480.00z M 256.00,32.00
	c-106.039,0.00-192.00,85.961-192.00,192.00c0.00,106.039, 85.961,192.00, 192.00,192.00c 106.039,0.00, 192.00-85.961, 192.00-192.00C 448.00,117.961, 362.039,32.00, 256.00,32.00z"  />
<glyph unicode="&#xe05c;" d="M0.00,384.00L 512.00,384.00L 512.00,352.00L0.00,352.00zM0.00,320.00L 352.00,320.00L 352.00,288.00L0.00,288.00zM0.00,256.00L 512.00,256.00L 512.00,224.00L0.00,224.00zM0.00,192.00L 352.00,192.00L 352.00,160.00L0.00,160.00zM0.00,128.00L 512.00,128.00L 512.00,96.00L0.00,96.00zM0.00,64.00L 352.00,64.00L 352.00,32.00L0.00,32.00z"  />
<glyph unicode="&#xe05d;" d="M0.00,384.00L 512.00,384.00L 512.00,352.00L0.00,352.00zM 96.00,320.00L 416.00,320.00L 416.00,288.00L 96.00,288.00zM 96.00,192.00L 416.00,192.00L 416.00,160.00L 96.00,160.00zM 96.00,64.00L 416.00,64.00L 416.00,32.00L 96.00,32.00zM0.00,256.00L 512.00,256.00L 512.00,224.00L0.00,224.00zM0.00,128.00L 512.00,128.00L 512.00,96.00L0.00,96.00z"  />
<glyph unicode="&#xe05e;" d="M0.00,384.00L 512.00,384.00L 512.00,352.00L0.00,352.00zM 160.00,320.00L 512.00,320.00L 512.00,288.00L 160.00,288.00zM0.00,256.00L 512.00,256.00L 512.00,224.00L0.00,224.00zM 160.00,192.00L 512.00,192.00L 512.00,160.00L 160.00,160.00zM0.00,128.00L 512.00,128.00L 512.00,96.00L0.00,96.00zM 160.00,64.00L 512.00,64.00L 512.00,32.00L 160.00,32.00z"  />
<glyph unicode="&#xe05f;" d="M0.00,320.00L 512.00,320.00L 512.00,288.00L0.00,288.00zM0.00,192.00L 512.00,192.00L 512.00,160.00L0.00,160.00zM0.00,64.00L 512.00,64.00L 512.00,32.00L0.00,32.00zM0.00,384.00L 512.00,384.00L 512.00,352.00L0.00,352.00zM0.00,256.00L 512.00,256.00L 512.00,224.00L0.00,224.00zM0.00,128.00L 512.00,128.00L 512.00,96.00L0.00,96.00z"  />
<glyph unicode="&#xe061;" d="M 96.00,448.00l0.00-384.00 l 384.00,0.00 L 480.00,448.00 L 96.00,448.00 z M 448.00,96.00L 128.00,96.00 L 128.00,416.00 l 320.00,0.00 L 448.00,96.00 zM 64.00,32.00L 64.00,352.00L 32.00,384.00L 32.00,0.00L 416.00,0.00L 384.00,32.00 	zM 214.627,137.373L 310.627,233.373L 384.00,160.00L 384.00,352.00L 192.00,352.00L 265.373,278.627L 169.373,182.627 	z"  />
<glyph unicode="&#xe063;" d="M 432.00,128.00c-22.58,0.00-42.96-9.369-57.506-24.415L 158.992,211.336C 159.649,215.462, 160.00,219.689, 160.00,224.00
	s-0.351,8.538-1.008,12.663l 215.502,107.751C 389.04,329.369, 409.42,320.00, 432.00,320.00c 44.183,0.00, 80.00,35.817, 80.00,80.00S 476.183,480.00, 432.00,480.00
	s-80.00-35.817-80.00-80.00c0.00-4.311, 0.352-8.538, 1.008-12.663L 137.506,279.585C 122.96,294.63, 102.58,304.00, 80.00,304.00c-44.183,0.00-80.00-35.818-80.00-80.00
	c0.00-44.184, 35.817-80.00, 80.00-80.00c 22.58,0.00, 42.96,9.369, 57.506,24.414l 215.502-107.751C 352.352,56.538, 352.00,52.311, 352.00,48.00
	c0.00-44.184, 35.817-80.00, 80.00-80.00s 80.00,35.816, 80.00,80.00C 512.00,92.182, 476.183,128.00, 432.00,128.00z"  />
<glyph unicode="&#xe064;" d="M 209.304,145.838c-2.208,1.536-4.496,3.129-6.858,4.798c-6.883,2.123-14.152,3.238-21.632,3.318
		c-0.315,0.003-0.62,0.005-0.93,0.005c-34.69,0.00-65.121-21.302-65.121-45.585c0.00-26.444, 25.998-47.159, 59.187-47.159
		c 24.12,0.00, 41.903,4.632, 52.854,13.766c 8.954,7.469, 13.307,17.872, 13.307,31.804c0.00,2.858-0.338,5.776-1.004,8.675
		C 236.274,126.641, 226.928,133.574, 209.304,145.838zM 256.00,480.00C 114.615,480.00,0.00,365.385,0.00,224.00s 114.615-256.00, 256.00-256.00s 256.00,114.615, 256.00,256.00S 397.385,480.00, 256.00,480.00z M 256.812,50.464
		c-20.807-17.217-49.387-26.317-82.65-26.317c-30.692,0.00-59.188,6.449-80.238,18.16C 70.113,55.553, 57.00,74.94, 57.00,96.898
		c0.00,22.268, 12.208,44.534, 33.493,61.089c 21.139,16.442, 48.776,25.613, 77.959,25.898c-3.125,6.363-4.70,12.951-4.70,19.712
		c0.00,3.209, 0.352,6.468, 1.051,9.76c-23.559,1.026-44.831,10.012-60.295,25.562c-16.037,16.127-24.869,38.143-24.869,61.991
		c0.00,22.806, 11.474,45.612, 31.479,62.572c 19.325,16.383, 44.694,25.779, 69.603,25.779l 142.047,0.00 l-33.512-37.29l-32.309,0.00 
		c 9.861-13.337, 15.57-31.501, 15.57-51.737c0.00-23.887-11.835-46.484-33.324-63.629c-16.244-12.96-16.324-16.044-16.325-22.657
		c 0.613-4.122, 11.704-16.779, 23.409-25.239c 29.697-21.444, 40.74-42.468, 40.74-77.566
		C 287.018,88.464, 276.008,66.347, 256.812,50.464z M 384.00,288.00l0.00-64.00 l-32.00,0.00 l0.00,64.00 l-64.00,0.00 l0.00,32.00 l 64.00,0.00 L 352.00,384.00 l 32.00,0.00 l0.00-64.00 l 64.00,0.00 l0.00-32.00 L 384.00,288.00 zM 204.776,253.153c 8.643,9.826, 12.456,26.164, 10.20,43.705c-3.979,30.90-25.348,56.596-47.637,57.28
		c-0.285,0.008-0.57,0.013-0.856,0.013c-7.519,0.00-14.24-3.124-19.438-9.033c-8.519-9.686-12.116-25.26-9.867-42.729
		c 3.979-30.903, 25.792-57.573, 47.635-58.24C 192.491,243.909, 199.394,247.033, 204.776,253.153z"  />
<glyph unicode="&#xe065;" d="M 256.00,480.00C 114.615,480.00,0.00,365.385,0.00,224.00c0.00-119.285, 81.585-219.516, 192.00-247.935L 192.00,192.00 l-46.263,0.00 l0.00,73.282 L 192.00,265.282 l0.00,47.593 
	C 192.00,377.546, 219.896,416.00, 295.935,416.00l 87.622,0.00 l0.00-79.285 l-71.565,0.00 c-21.241,0.035-23.876-11.076-23.876-31.756L 288.00,265.282l 96.00,0.00 L 371.296,192.00
	L 288.00,192.00 l0.00-222.013 C 414.281-14.265, 512.00,93.453, 512.00,224.00C 512.00,365.385, 397.385,480.00, 256.00,480.00z"  />
<glyph unicode="&#xe066;" d="M 256.00,480.00C 114.615,480.00,0.00,365.385,0.00,224.00s 114.615-256.00, 256.00-256.00s 256.00,114.615, 256.00,256.00S 397.385,480.00, 256.00,480.00z M 403.121,299.456
	c 0.146-3.254, 0.221-6.528, 0.221-9.819c0.00-100.311-76.354-215.982-215.979-215.982c-42.868,0.00-82.768,12.568-116.363,34.107
	c 5.938-0.704, 11.981-1.063, 18.108-1.063c 35.565,0.00, 68.295,12.138, 94.275,32.497c-33.217,0.61-61.25,22.561-70.912,52.716
	c 4.637-0.884, 9.392-1.361, 14.283-1.361c 6.923,0.00, 13.629,0.928, 19.999,2.662c-34.726,6.976-60.893,37.656-60.893,74.434
	c0.00,0.32,0.00,0.639, 0.008,0.955c 10.235-5.685, 21.939-9.10, 34.382-9.494c-20.37,13.611-33.77,36.846-33.77,63.184
	c0.00,13.911, 3.744,26.952, 10.278,38.162c 37.439-45.927, 93.374-76.146, 156.462-79.314c-1.294,5.559-1.965,11.351-1.965,17.302
	c0.00,41.92, 33.99,75.906, 75.909,75.906c 21.833,0.00, 41.562-9.218, 55.409-23.97c 17.29,3.404, 33.537,9.721, 48.206,18.42
	c-5.668-17.727-17.705-32.603-33.376-41.997c 15.355,1.834, 29.984,5.916, 43.597,11.952
	C 430.825,323.529, 417.955,310.16, 403.121,299.456z"  />
<glyph unicode="&#xe067;" d="M 416.00,416.00L 96.00,416.00 c-52.80,0.00-96.00-43.20-96.00-96.00l0.00-192.00 c0.00-52.80, 43.20-96.00, 96.00-96.00l 320.00,0.00 c 52.80,0.00, 96.00,43.20, 96.00,96.00L 512.00,320.00 C 512.00,372.80, 468.80,416.00, 416.00,416.00z
		 M 480.00,128.00c0.00-16.989-6.687-33.031-18.827-45.173C 449.031,70.687, 432.99,64.00, 416.00,64.00L 96.00,64.00 c-16.989,0.00-33.031,6.687-45.172,18.827
		C 38.687,94.969, 32.00,111.011, 32.00,128.00L 32.00,320.00 c0.00,16.989, 6.687,33.031, 18.828,45.172S 79.011,384.00, 96.00,384.00l 320.00,0.00 
		c 16.989,0.00, 33.031-6.687, 45.173-18.828C 473.314,353.031, 480.00,336.989, 480.00,320.00L 480.00,128.00 zM 192.00,96.00L 352.00,224.00L 192.00,352.00 	z"  />
<glyph unicode="&#xe068;" d="M 416.00,416.00L 96.00,416.00 c-52.80,0.00-96.00-43.20-96.00-96.00l0.00-192.00 c0.00-52.80, 43.20-96.00, 96.00-96.00l 320.00,0.00 c 52.80,0.00, 96.00,43.20, 96.00,96.00L 512.00,320.00 C 512.00,372.80, 468.80,416.00, 416.00,416.00z
	 M 192.00,96.00L 192.00,352.00 l 160.00-128.00L 192.00,96.00z"  />
<glyph unicode="&#xe06a;" d="M 432.00,320.00c-17.60,0.00-32.00-14.40-32.00-32.00l0.00-128.00 c0.00-17.60, 14.40-32.00, 32.00-32.00s 32.00,14.40, 32.00,32.00L 464.00,288.00 C 464.00,305.60, 449.60,320.00, 432.00,320.00zM 48.00,320.00c-17.60,0.00-32.00-14.40-32.00-32.00l0.00-128.00 c0.00-17.60, 14.40-32.00, 32.00-32.00s 32.00,14.40, 32.00,32.00L 80.00,288.00 C 80.00,305.60, 65.599,320.00, 48.00,320.00zM 96.00,112.00c0.00-26.51, 21.49-48.00, 48.00-48.00l 16.00,0.00 l0.00-64.00 c0.00-17.60, 14.40-32.00, 32.00-32.00s 32.00,14.40, 32.00,32.00l0.00,64.00 l 32.00,0.00 l0.00-64.00 c0.00-17.60, 14.401-32.00, 32.00-32.00s 32.00,14.40, 32.00,32.00
		l0.00,64.00 l 16.00,0.00 c 26.51,0.00, 48.00,21.49, 48.00,48.00L 384.00,288.00 L 96.00,288.00 L 96.00,112.00 zM 299.299,435.253l 20.252,38.903c 1.016,1.951, 0.25,4.379-1.701,5.395s-4.379,0.25-5.395-1.701l-20.559-39.493
		C 275.797,444.581, 258.299,448.00, 240.00,448.00c-18.298,0.00-35.796-3.419-51.898-9.643L 167.544,477.849c-1.016,1.951-3.443,2.717-5.395,1.701
		s-2.717-3.443-1.701-5.395l 20.25-38.904c-45.315-20.509-78.12-63.792-83.81-115.252l 286.22,0.00 
		C 377.42,371.461, 344.615,414.743, 299.299,435.253z M 176.00,344.80c-12.813,0.00-23.20,10.387-23.20,23.20c0.00,12.813, 10.387,23.20, 23.20,23.20
		s 23.20-10.387, 23.20-23.20C 199.199,355.187, 188.813,344.80, 176.00,344.80z M 304.00,344.80c-12.813,0.00-23.201,10.387-23.201,23.20
		c0.00,12.813, 10.389,23.20, 23.201,23.20s 23.199-10.387, 23.199-23.20C 327.199,355.187, 316.813,344.80, 304.00,344.80z"  />
<glyph unicode="&#xe06b;" d="M 395.749,207.954c-0.647,64.841, 52.879,95.938, 55.271,97.483c-30.076,44.01-76.925,50.039-93.621,50.736
		c-39.871,4.037-77.798-23.474-98.033-23.474c-20.184,0.00-51.409,22.877-84.476,22.276c-43.458-0.646-83.529-25.269-105.906-64.19
		c-45.152-78.349-11.563-194.42, 32.445-257.963c 21.504-31.102, 47.146-66.038, 80.813-64.79c 32.421,1.294, 44.681,20.979, 83.878,20.979
		c 39.197,0.00, 50.214-20.979, 84.525-20.335c 34.887,0.648, 56.991,31.699, 78.346,62.898c 24.695,36.084, 34.863,71.019, 35.462,72.813
		C 463.679,104.74, 396.423,130.505, 395.749,207.954zM 331.281,398.239C 349.15,419.918, 361.211,449.995, 357.921,480.00c-25.739-1.048-56.939-17.145-75.405-38.775
		c-16.571-19.188-31.074-49.813-27.187-79.218C 284.062,359.765, 313.393,376.609, 331.281,398.239z"  />
<glyph unicode="&#xe06c;" d="M 206.115,224.043c-23.854,12.259-47.043,18.479-68.94,18.479c-2.978,0.00-5.976-0.09-8.974-0.354
		c-27.94-2.312-53.461-9.684-69.875-15.414c-4.354-1.599-8.817-3.288-13.415-5.153L0.00,65.904
		c 30.851,11.416, 58.146,16.969, 83.135,16.969c 40.423,0.00, 69.764-15.104, 93.996-30.652c 11.481,38.959, 39.022,133.045, 47.241,161.162
		C 218.397,217.025, 212.334,220.668, 206.115,224.043zM 264.174,184.465l-45.223-157.074c 13.416-7.686, 58.549-32.025, 93.106-32.025c 27.896,0.00, 59.126,7.148, 95.417,21.896
		l 43.178,150.988c-29.316-9.461-57.438-14.26-83.732-14.26C 318.945,153.99, 285.363,169.539, 264.174,184.465zM 146.411,295.605c 38.559-0.399, 67.076-15.104, 90.708-30.251l 46.376,158.672c-9.773,5.598-35.403,19.547-53.929,24.30
		c-12.193,2.842-25.01,4.308-38.602,4.308c-25.898-0.488-54.194-6.973-86.444-19.90l-44.22-155.298
		c 32.404,12.218, 60.322,18.17, 86.043,18.17C 146.366,295.605, 146.411,295.605, 146.411,295.605zM 512.00,380.938c-29.407-11.416-58.104-17.233-85.514-17.233c-45.843,0.00-79.646,15.901-101.547,31.183L 278.964,235.77
		c 30.873-19.854, 64.145-29.939, 99.061-29.939c 28.474,0.00, 57.97,6.84, 87.731,20.344l-0.091,1.111l 1.867,0.443L 512.00,380.938z"  />
<glyph unicode="&#xe06d;" d="M 480.00,224.00c0.00-123.712-100.288-224.00-224.00-224.00S 32.00,100.288, 32.00,224.00c0.00,54.528, 19.616,104.368, 52.00,143.20
	c 2.464,4.544, 5.888,8.496, 10.16,11.36c 0.72,0.752, 1.36,1.60, 2.096,2.336c 0.016-0.368, 0.176-0.72, 0.208-1.088C 101.088,382.40, 106.336,384.00, 112.00,384.00
	c 17.664,0.00, 32.00-14.336, 32.00-32.00c0.00-11.136-5.68-20.928-14.32-26.656C 130.24,324.928, 130.64,324.416, 131.216,324.00C 109.216,296.608, 96.00,261.872, 96.00,224.00
	c0.00-88.368, 71.632-160.00, 160.00-160.00s 160.00,71.632, 160.00,160.00c0.00,37.872-13.216,72.608-35.216,100.00c 0.576,0.416, 0.992,0.928, 1.536,1.344
	C 373.68,331.072, 368.00,340.864, 368.00,352.00c0.00,17.664, 14.336,32.00, 32.00,32.00c 5.664,0.00, 10.912-1.60, 15.536-4.192c 0.032,0.368, 0.192,0.72, 0.224,1.088
	c 0.72-0.736, 1.36-1.584, 2.096-2.336c 4.272-2.864, 7.68-6.816, 10.16-11.36C 460.368,328.368, 480.00,278.528, 480.00,224.00z M 272.00,192.00l-32.00,0.00 
	c-8.848,0.00-16.00,7.152-16.00,16.00L 224.00,432.00 c0.00,8.832, 7.152,16.00, 16.00,16.00l 32.00,0.00 c 8.848,0.00, 16.00-7.168, 16.00-16.00l0.00-224.00 C 288.00,199.152, 280.848,192.00, 272.00,192.00z"  />
<glyph unicode="&#xe06e;" d="M 256.00-32.00C 114.624-32.00,0.00,82.624,0.00,224.00C0.00,365.376, 114.624,480.00, 256.00,480.00c 141.376,0.00, 256.00-114.624, 256.00-256.00
	C 512.00,82.624, 397.376-32.00, 256.00-32.00z M 463.488,245.456c 0.416,0.208, 0.64,0.56, 0.80,1.12c 0.336-1.776, 1.152-3.344, 2.464-4.496
	c 0.032-0.16-0.048-0.128, 0.032-0.352c 0.128,0.00, 0.224,0.096, 0.336,0.096C 468.464,240.736, 470.128,240.00, 472.00,240.00c 2.88,0.00, 5.28,1.60, 6.688,3.856
	c 0.096-0.112, 0.256-0.256, 0.336-0.384c-0.016,0.256-0.048,0.512-0.08,0.768C 479.568,245.376, 480.00,246.624, 480.00,248.00
	c0.00,4.416-3.60,8.00-8.00,8.00c-2.816,0.00-5.152-1.536-6.592-3.712c-0.064,0.048,0.00,0.24-0.176,0.176
	c 0.208,0.608-0.352,2.16-1.232,3.824L 464.00,248.00 C 464.00,247.088, 463.744,246.272, 463.488,245.456z M 95.872,247.856c0.00,2.416-5.504,6.528-6.928,6.528
	c0.00,0.432-2.24,5.36-3.088,5.36c0.00,1.664-5.84,9.136-6.768,5.872c-0.608-2.112, 4.464-4.96, 4.464-7.408
	c 0.944,0.00, 4.912-7.52, 5.696-8.832c 8.672-14.656-6.48-4.64-6.48,1.568c-1.936,0.96-4.992,8.336-4.992,10.352
	c-1.136,0.912-4.496,8.032-4.224,8.032c0.00,4.672-2.576,6.912-7.696,6.912c-0.24,0.464-4.544,6.512-4.624,6.512
	c0.00,1.92-3.456,7.872-5.376,8.816c0.00,3.984-2.048,8.896-1.136,13.024c0.00,4.336-0.224,9.248-1.696,13.696C 39.664,289.60, 32.00,257.728, 32.00,224.00
	c0.00-96.656, 61.344-178.784, 147.136-210.192c 0.096,7.936, 0.688,17.44, 2.496,17.44c0.00,1.184, 1.008,6.144, 1.92,6.144c0.00,3.04, 0.368,6.704,0.00,10.352
	c-1.136,2.288, 1.504,5.216, 2.304,8.816c 4.432,2.224, 1.296,24.528, 4.64,24.528c0.00,11.152, 2.496,17.648, 0.752,27.984
	c 0.848,0.00-5.04,6.256-4.992,6.144c-5.648,0.00-9.60,9.056-9.60,13.024c-0.544,1.744-1.936,4.352-1.936,6.512
	c 1.296,0.00-8.08,13.696-8.08,13.424c-4.96,2.752, 0.272,6.592, 0.768,11.104c-4.304,1.424, 0.048,13.04, 1.92,13.04
	c 0.192,1.472, 0.96,2.48, 2.32,3.056c 0.96-3.824, 5.424,1.904, 1.92,1.904c0.00,2.528-0.288,7.936,0.00,9.20
	c0.00,3.904-3.456,11.552-6.144,3.456c-2.88,1.424-10.144,1.168-10.768,5.744c 0.448,2.256-4.144,6.864-5.76,7.664
	c 1.504,3.936-7.792,9.20-11.152,9.20c0.00,0.848-1.776,0.464-2.304,1.536c-3.424,0.00-4.208,4.608-8.08,4.608
	c-4.464,0.00-8.96,3.056-13.072,3.056c-1.376,2.736-7.76,1.664-9.232,4.608c-3.344,0.00-4.656,6.336-4.752,8.672
	C 102.16,237.904, 99.872,247.856, 95.872,247.856z M 419.968,376.256C 419.936,376.16, 420.00,376.224, 419.84,375.904c 0.24,0.00, 0.528-0.272, 0.80-0.384
	C 420.40,375.76, 420.192,376.00, 419.968,376.256z M 424.784,370.96c 0.56-1.088, 0.976-2.096, 0.848-2.72c 0.56-0.016, 0.832,0.288, 1.28,0.40
	C 426.224,369.424, 425.472,370.16, 424.784,370.96z M 438.688,298.064c 0.256,6.912-5.76,5.76-7.664,9.60c-1.984,0.00-2.704,1.536-5.392,1.536
	c-1.744,0.592-3.12,0.176-4.128-1.248c-4.112-1.568-1.632,2.00-4.72,2.00c 0.144,3.952-1.424,5.04-5.776,4.608
	c-2.496-5.632-6.336-9.008-5.76-15.344c 1.84-0.416, 1.52-0.832, 1.152-2.672c 2.448-0.128, 17.296,0.768, 17.296,2.304
	c 0.512,0.00, 3.088-5.296, 3.088-0.768c 2.064,0.00, 3.152-4.848, 8.08-3.44C 434.864,293.648, 443.088,298.064, 438.688,298.064z M 439.472,216.416
	c 0.288,1.408-0.704,2.032-1.536,3.456c 2.192,0.00-6.928,16.912-6.928,19.552c-1.392,0.688-3.168,5.52-3.488,7.28
	c-1.872,1.248-3.808,5.344-4.608,7.664c-1.904,1.264-6.544,6.928-7.296,9.584c 2.752-0.304, 6.912-0.864, 6.912,2.688
	c-1.856,0.00-2.128,2.288-0.368,2.288c-0.576,2.352, 1.248,4.048, 1.648,5.888c 0.48,2.224, 1.424,5.648, 1.424,8.304
	c-2.64,0.00-3.28-0.448-5.376-1.152c0.00-1.552-4.688,0.384-5.376,0.384c-1.008,2.016-8.32-2.624-10.368,1.536
	c-3.312,2.992-2.416,5.296-3.488,9.52c-0.544,2.144-3.472,2.272-5.248,2.624c-5.008,0.976-1.392-5.968-1.664-7.552
	c 3.072,0.00-1.936-3.808-1.936-5.744c-5.184,1.12-3.456,6.896-6.512,8.432c-0.912,1.536-0.192,2.688-2.32,2.688
	c0.00,2.048, 1.088,5.76-1.152,6.512c0.00,0.992-4.352,1.392-4.992,2.688c-2.752,0.00-9.152,10.40-11.12,6.896
	c-1.232-2.24, 1.04-2.784, 1.504-4.608c 3.984,0.784, 3.60-6.56, 8.464-5.744c0.00-1.024, 0.128-2.064, 0.368-3.072
	c 3.60,0.848, 3.184-2.672, 4.992-2.672c-1.312-1.744-5.472,2.784-4.336-1.024c 0.656-2.208, 0.288-4.096-2.576-6.256
	c0.00,2.384-0.192,8.816-2.688,8.816c-1.696,3.392-6.736,2.576-8.864,5.744c-1.728,0.00-2.40,5.376-5.376,5.744
	c-0.56-0.784-2.656-1.536-3.472-1.536c-1.616-3.248-10.752-0.336-10.752-0.768c-0.144-0.032-5.12-12.192-5.408-13.792
	c-0.56-3.44-3.328-3.504-4.16-6.768c-0.416-1.632-10.448-0.864-10.448-2.064c-4.336,1.44-8.08,4.48-8.08,9.20
	c-0.352,0.00, 0.816,12.048, 1.552,13.808c 0.88-0.24, 1.056-0.544, 1.552-1.536c 2.656,0.992, 8.848-0.656, 8.848,2.304
	c 2.576-0.064, 3.344-1.088, 2.304-3.072c 2.40-0.448, 6.544-1.056, 6.544,2.304c-1.408,0.00-1.552,0.128-1.552,1.536
	c 4.608,4.784-3.456,9.104-3.456,11.488c-1.632,0.544-4.96,4.08-2.592,2.752c 2.00-1.104, 9.312-3.392, 6.432,1.472
	c 0.192,0.064, 0.32,0.192, 0.368,0.368c 0.816-0.576, 4.256-4.112, 4.256-0.768c 0.944,0.00, 4.592,2.304, 1.536,2.304
	c 0.288,1.728, 0.224,3.168, 0.368,4.224c 4.88-2.624, 2.16,1.792, 4.624,3.44c0.00-3.184, 2.624,1.536, 4.224,1.536
	c 1.904,2.832, 6.256,0.64, 7.312,3.84c-2.352,0.768-1.92,6.656-1.92,8.80c 2.832-0.464, 5.984,3.824, 6.416,0.88
	c 0.16-1.136, 0.304-4.272, 0.88-4.704c 4.208-2.208, 3.088,1.264, 3.088,3.44c-1.408,0.00-3.28,4.928-3.472,7.296
	c-1.152-0.16-3.008-0.64-3.472-1.52c-4.192,0.00-7.04,1.52-10.368,1.52c-0.256,0.512-4.256,4.992-3.84,4.992
	c-2.336,4.016, 2.336,2.848, 3.072,3.04c0.00,3.808, 15.856,3.136, 16.544,9.216c-5.216,0.00, 5.376,8.832, 5.376,8.80
	c 3.536,3.024, 5.408,5.632, 9.808,5.968c 1.856,0.128, 22.496,5.824, 22.496,3.248c 0.832-0.032, 3.584-0.064, 6.432-0.16
	C 368.256,425.12, 314.864,448.00, 256.00,448.00c-57.008,0.00-108.896-21.472-148.432-56.56c 0.352-0.80, 0.624-1.568, 0.608-2.112
	C 110.272,389.472, 113.28,390.816, 113.952,388.16C 112.912,388.176, 111.872,388.304, 110.88,388.56c 0.736-5.936-2.592-2.304-5.376-2.304
	c0.00,0.144-1.232,0.64-2.544,0.992c-0.848-0.80-1.744-1.552-2.592-2.352C 100.464,384.64, 100.32,384.624, 100.48,384.336
	c 0.896,0.00, 0.432-1.392, 2.992-2.24C 106.432,381.088, 109.68,380.528, 112.80,380.032c 2.528-0.40, 3.984,0.464, 6.144,0.464
	c0.00,0.32, 5.28,2.672, 1.552,2.672c 0.512,2.112-0.432,2.64-2.704,2.672c 0.192,2.24, 5.52,0.768, 7.696,0.768
	c 1.664,2.80, 0.048,2.464, 1.52,5.008c 1.76,3.12, 3.856,0.416, 5.008,3.408C 133.76,394.384, 135.312,393.44, 135.872,391.232
	C 137.264,390.08, 144.336,379.648, 144.336,387.024C 146.864,386.176, 148.128,381.44, 148.176,378.96c 4.592,0.672, 4.992,4.112, 4.992,7.68
	c 1.056,0.00-0.384,1.712-0.384,2.304C 154.496,389.568, 156.64,387.312, 156.64,389.696c 0.736,0.00, 0.768-0.736, 0.768-1.536
	c 2.384-0.464, 3.92,0.272, 5.376-0.24c 1.008-0.352, 0.496-5.584, 0.032-7.424c-0.576-2.336-5.04-2.368-5.04-3.456
	c-5.056-3.776, 5.968-5.744, 7.696-8.048c-1.04,0.00-4.992,0.512-4.992,0.752c-2.496,0.00-8.544-2.64-10.768-0.752
	c 3.104,0.00, 4.144,3.728, 4.624,7.28c-2.864,1.072-6.24-0.688-7.04-3.536C 145.952,368.032, 142.832,372.928, 141.264,369.76
	C 140.656,369.568, 135.104,366.992, 135.104,367.856c-6.24-0.88-4.608-6.176-4.608-11.888C 132.976,354.48, 138.016,350.24, 137.792,347.92
	C 143.392,346.928, 145.44,346.336, 150.48,345.616c 0.416-0.816, 2.08-1.584, 3.088-1.904c0.00-3.296, 2.992-2.704, 5.76-2.704
	c0.00,4.208, 4.896-3.504, 5.376-4.976c-0.672,0.00, 1.152-4.304, 1.536-5.76c-0.768,0.272-1.008,0.00-0.768-0.768
	c 2.432-0.896, 6.288-0.64, 6.928,1.92c-2.336,0.00-1.552,2.672-1.552,4.224c-2.40,1.60-2.032,4.688, 0.384,5.36
	c0.00-2.176, 7.92,1.36, 3.456,3.056c 1.088,2.448, 1.824,6.208, 0.048,8.336c-1.136,1.344-2.56,0.00-3.12,2.016
	c 3.024,0.752, 0.80,6.512, 0.768,9.20c 0.96,0.368, 3.456-0.608, 3.456,0.00c 2.96,0.00, 7.888-3.744, 9.616,0.784
	c 4.944-2.256, 1.008-4.40, 6.16-2.688c0.00-1.216, 5.808-6.896, 6.544-6.896c0.00-0.272-0.144-1.92, 1.136-1.92
	c0.00-1.232-0.768,0.704-0.768-1.52c 0.72-0.08, 4.624-0.784, 4.624,0.752c 2.48,0.00, 4.224,3.04, 4.224,5.36
	c 1.552,1.008, 4.272-8.432, 6.144-8.432c 1.376-2.144, 5.776-5.264, 5.776-7.28c 0.928-0.944, 1.904-0.688, 1.904-3.456
	c 1.168,0.00, 3.472,4.592, 3.472,0.384c 1.088,0.00, 4.256-2.336, 4.624-4.208c-2.768,0.00-0.144-2.688-1.568-2.688
	c0.00-2.656-5.936-0.544-7.28-0.384c-1.84-8.24-12.944-2.32-19.664-4.448c-3.536-1.12-10.368-8.912-10.736-12.80
	c 4.288-0.048, 6.176,3.712, 10.00,4.992c 3.12,0.00, 3.728,1.888, 6.544,2.672c0.00-0.784, 0.768-0.368, 0.768-1.152
	c-5.472,0.00-2.144-3.536-0.544-6.112c 0.992-1.60, 2.128-2.368, 3.392-2.864c-0.528-0.928-0.96-1.856-1.296-2.896
	c0.00-0.016-0.016,0.00-0.016-0.016c-1.04-0.352-3.072-1.104-3.472-1.92c-6.192-0.688-3.136-0.272-2.72,1.216
	c 0.224-0.528, 2.448-0.048, 2.352-0.064c-0.368,1.856-0.928,1.60-0.384,2.672c-3.36,0.00-4.992-1.536-7.696-1.536
	c-0.448-0.912-2.80-3.072-3.84-3.072c-0.784-2.368-2.56-6.672-4.624-8.048c0.00,0.624-5.472-3.44-4.992-3.44
	c-1.216-1.968-2.544-1.904-3.088-4.976c-0.368-0.192-1.92-5.328-1.92-6.128c-2.384-1.584-3.264-8.048-7.312-8.048
	c-2.48-4.928-6.928-4.272-6.928-10.736c 1.504-1.536, 2.08-8.336, 2.544-10.512c 0.576-2.704, 1.472-5.52-2.144-5.584
	c-0.256,0.40-2.784,4.224-2.32,4.224c0.00,1.584-1.936,6.656-3.072,8.24c-1.52,2.128-4.336-0.336-6.544,0.592
	c-0.944,1.888-7.328,2.304-9.60,2.304c 0.368-1.424, 1.408-1.872, 1.536-3.456c-1.888-0.768-2.976-1.632-4.928-1.36
	c-3.344,0.464-2.944,3.072-6.624,2.704c-5.888-0.592-10.00-5.472-10.00-11.312c-0.656,0.00-0.656-11.504,0.00-11.504
	c0.00-3.248, 2.688-5.60, 2.688-8.048c 2.608,0.00, 5.536-5.744, 8.08-5.744c 0.288-2.032-1.28-2.352, 3.072-2.32
	c0.00,0.224, 2.368,1.488, 2.688,3.072c-3.008,0.736-0.016,4.608, 1.92,5.36c0.00-2.736, 3.84,0.912, 3.84,1.152
	c 0.432,0.176, 4.24,1.536, 4.24,1.536c0.00,3.104, 2.896-0.304, 0.768-1.536c-2.08,0.00-1.92-3.456-3.072-3.456
	c-0.496-2.464-1.472-4.608-2.048-7.008c-0.736-2.96, 1.664-3.264, 0.896-6.032c 3.056-0.576, 6.144-0.016, 9.232,0.00
	c 0.016,0.544-0.096,1.072-0.384,1.536c 4.464,0.00, 0.384-8.432, 3.088-8.432c0.00-3.184, 1.536-5.664, 1.536-7.664
	c 2.08-1.376, 3.328-3.216, 2.688-5.744c 2.56-0.336, 8.064-0.992, 8.064,2.304c 3.888,0.00, 4.16-2.64, 3.872-5.36
	c 7.744,0.00, 2.896,7.664, 6.128,7.664c 0.304,1.264, 0.832,1.488, 1.584,0.656c 1.584-0.848, 2.784,1.584, 4.048,2.352
	c 0.40,0.272, 1.808,1.088, 2.064,1.088c 1.088-0.656, 1.184-0.464, 1.664-1.20c 2.112,0.016, 4.24,1.20, 6.048,2.448
	c 2.768-0.336, 1.872-6.288, 7.056-6.656c 2.08-0.144, 6.896-0.72, 8.688,0.512c 0.448,0.304, 2.096-1.04, 2.272-1.616
	c 1.728,0.00, 1.60-1.504, 2.336-1.472c 0.176-0.336, 0.432-0.464, 0.784-0.368c 0.224-0.656, 1.60-0.848, 2.32-2.672
	c0.00-1.664, 3.456-1.952, 3.456-3.056c 2.48-1.248-0.848-1.584, 2.96-2.736c 2.096-0.656, 4.032-1.712, 6.288-1.872
	c 0.72,2.736, 3.056-0.368, 4.24-0.368c 0.608-1.248, 0.928-0.304, 1.52-1.536c 3.568-2.976, 1.216-1.824, 2.688-4.992
	c 1.712-1.12, 2.256-5.024, 2.72-7.28c-1.376,0.00-0.40-5.264-0.40-5.76c-1.664,0.00, 4.256-3.152, 4.256,0.784
	c 2.432-0.40, 4.032-3.056, 5.76-3.056c-1.008-2.32, 2.688-4.064, 2.688-0.40c 3.648-0.368, 2.672-5.808, 2.32-7.664
	c 2.704,0.00, 3.488,1.504, 5.792,1.792C 266.064,158.848, 268.848,160.00, 272.00,160.00c 8.848,0.00, 16.00-7.152, 16.00-16.00c0.00-7.968-5.936-14.288-13.568-15.504
	c-1.024-1.168-1.952-2.176-2.016-2.176c0.00-0.768-0.176-8.416-0.40-8.416c0.00-1.536-1.168-9.968-2.304-9.968
	c0.00-4.336-2.832-5.12-3.84-9.20c-2.336-1.728-8.656-4.608-9.632-6.512c-1.808,0.00-3.152-1.536-4.992-1.536
	c-0.256-0.528-4.176-4.224-3.472-4.224c-0.288-2.72, 0.208-9.12-1.264-10.912c-0.992-1.184-2.416-1.056-1.792-2.912
	c-2.16,0.00, 0.128-1.536-3.28-1.536c-2.144,0.00-5.968-3.056-6.08-5.648c-0.144-3.168-0.992-5.456-3.712-7.392
	c0.00-1.088-4.992-1.408-4.992-4.224c 0.464,0.00,0.00-5.216,0.00-5.744c-1.488,0.048-5.136-1.44-5.76-2.672c-5.024,0.00-4.416-0.512-7.68-2.688
	c0.00-0.672-0.464-3.056-1.152-3.056c0.00-3.888-2.768-0.352-5.008-2.32c 0.88,0.00, 2.00-3.824, 1.536-3.824
	c0.00-3.376-2.096-3.664-4.224-6.144c-1.008-0.672-1.968-3.456-2.688-3.456c0.00-2.272-1.136-4.336-1.136-6.512
	c 0.48,0.00, 0.032-0.976, 0.368-1.888c 1.072,0.304, 1.104,1.52, 1.536,1.52c0.00,1.92, 3.056-1.136, 1.152-1.136
	c-1.584-2.40-3.296-2.448-4.24-5.76c-0.96,0.00-1.792-0.928-2.496-2.016C 215.712,3.008, 235.488,0.00, 256.00,0.00
	c 78.784,0.00, 147.936,40.768, 187.872,102.288c 0.24,5.664, 1.12,11.072, 1.744,12.944c 1.568-1.152, 2.736-3.312, 3.84,0.00
	c-2.768,0.544-2.096,1.504-1.152,3.824c 1.056-0.64, 3.184-1.424, 4.912-1.312c 0.528,0.992, 0.944,2.048, 1.472,3.04
	c-1.568,1.216, 0.592,4.368, 1.344,2.832c 0.40,0.768, 0.752,1.568, 1.12,2.336c-0.176,0.048-0.128-0.064-0.384,0.016
	c0.00,1.392, 0.256,1.216, 1.168,1.92c 0.016-0.144,0.00-0.144, 0.032-0.272C 471.936,156.848, 480.00,189.44, 480.00,224.00c0.00,1.136-0.16,2.224-0.176,3.36
	c-0.416-1.568-1.20-3.264-2.304-3.648c0.00-1.008-11.44-5.984-10.752-8.048c-2.016,0.00-9.088-2.016-10.384-4.592
	c-1.424,0.00-7.168-2.032-7.696-3.072C 441.552,207.984, 442.912,216.416, 439.472,216.416z M 472.00,304.00l-8.496,0.00 
	c-0.064,0.08-0.128,0.096-0.192,0.208c-0.432,0.00-2.24,4.064-1.536,4.992c 0.688,0.00, 1.008-0.064, 1.376-0.096
	c-0.72,1.76-1.504,3.488-2.288,5.232c-1.728-1.184-3.248-2.688-5.632-2.832c0.00-0.656-3.408-7.28,0.00-7.28
	c0.00-0.128, 0.064-0.224, 0.096-0.336C 451.248,303.504, 448.00,300.176, 448.00,296.00c0.00-4.416, 3.584-8.00, 8.00-8.00l 3.152,0.00 
	c 0.192-1.456, 0.976-2.72, 3.776-3.344c 0.88-3.696, 7.472-5.008, 8.464-1.136c-2.784,0.00-1.872,2.672-1.632,4.48L 472.00,288.00 
	c 4.40,0.00, 8.00,3.584, 8.00,8.00C 480.00,300.416, 476.40,304.00, 472.00,304.00z M 448.688,199.968c 0.56-0.032, 4.256,0.064, 4.256,0.72
	c 3.344,0.00, 7.872,0.464, 11.152,1.552c0.00-4.96-4.176-7.728-3.472-12.656c-2.768,0.00-1.552-2.848-1.552-3.824
	c-1.792-1.104-2.064-3.12-4.224-4.224c0.00-2.224-4.992-5.904-6.464-7.808c-1.664-2.128-6.672-5.824-7.328-8.528
	c 0.176,0.64-9.152-9.712-6.976-9.712c0.00-1.936-2.624-17.248, 0.768-17.248c0.00-1.344, 2.896-14.192, 1.136-14.192
	c0.00-4.128-2.688-6.656-2.688-9.952c-1.312-0.896-3.184-1.392-3.84-2.704c-2.352,0.00-3.488-4.992-4.608-4.992
	c0.00-5.328-1.552-9.28-1.552-15.328c 0.432,0.00-3.072-8.624-3.072-9.184c-2.832-1.904-10.00-8.736-10.00-12.288c0.00,0.00-4.992-7.008-5.76-8.048
	c-1.504,0.00-13.088-2.176-13.088-3.072c-2.464,0.00-8.832-1.936-10.368,0.384c0.00,2.432-1.328,5.52-1.536,8.832
	c-1.184,0.00-1.376,4.976-2.688,4.976c0.00,1.056-7.344,15.728-6.16,15.728c0.00,1.52-1.312,6.512-1.536,6.512c0.00,5.28-3.856,9.68-3.856,14.56
	c-1.136,0.00-3.488,10.72-2.304,10.72c0.00,5.632, 1.968,9.312, 2.784,15.568c 0.912,6.864-0.432,11.04-1.632,15.888
	c-0.656,0.00-2.864,3.664-3.088,4.592c-3.088,2.048-4.224,6.112-4.224,9.952c 2.016,2.304, 2.816,10.96, 2.32,13.808
	c-3.888,1.84-5.44,1.152-9.632,1.152c-2.48,4.976-19.136,1.904-23.856,1.904c0.00-2.72-11.60,0.528-12.688,2.688
	c-2.832,0.00-8.448,6.016-8.448,8.816c-3.104,2.064-8.064,12.336-8.064,15.712c-2.688,1.344-1.872,6.528-0.40,6.528
	c 0.368,1.44-0.944,5.984-1.568,8.144c-0.464,1.616, 1.568,3.36, 1.568,5.28c0.00,5.344, 0.128,7.808, 3.12,13.52
	c 0.944,1.792, 2.144,3.472, 3.024,5.712c 1.60,4.016, 2.08,0.192, 4.24,3.776c 2.064,1.024, 3.264,4.448, 5.392,6.128
	c 0.928,1.232, 0.96,1.744,0.00,2.688c 0.416,0.00, 2.688,5.904, 2.688,7.264c 3.008,4.176, 0.88,2.272, 3.84,1.92
	c 1.088,1.184, 2.896,4.224, 4.608,4.224c 0.752,1.488, 2.64,2.304, 4.24,2.304c0.00-2.304, 6.272,0.752, 6.928,0.752
	c 1.072,2.16, 7.984,4.608, 9.616,4.608c0.00,2.624, 13.632-0.736, 15.776-0.384c0.00,0.384,0.00,0.768,0.00,1.152c 2.912-0.688, 8.224-12.368, 7.68-14.96
	c 2.24,0.00, 4.32,0.368, 5.776,0.00c0.00-2.48, 4.672-3.088, 6.80-3.20c 2.96-0.144, 11.648,0.304, 11.648,4.352c 2.288,0.00, 4.32-1.60, 3.872-4.208
	c 2.592-0.288, 18.00-0.592, 16.912-3.824c 2.256,0.00, 2.832-3.856, 4.992-3.856c-0.432-2.656, 2.688-9.584, 4.992-9.584
	c0.00-2.304, 1.44-6.544, 3.472-8.032c 1.088-3.296, 4.688-10.24, 8.064-12.272c-1.44-2.72, 2.192-4.96, 3.088-7.664
	c-0.208,0.00, 0.784-4.016, 1.904-4.608c0.00-2.72, 5.728-13.808, 8.864-13.808C 447.744,200.88, 444.592,200.272, 448.688,199.968z M 365.632,285.808
	c 0.592,2.288, 1.936,0.512, 3.184,0.096c 2.96-0.96, 1.936,0.048, 4.128,1.04C 372.944,280.704, 369.36,285.44, 365.632,285.808z
	 M 357.536,297.312c 1.568,0.00, 2.00-7.04-2.304-5.744c0.00,1.744-1.104,4.976, 1.168,4.976C 357.056,293.824, 357.536,294.928, 357.536,297.312z
	 M 355.632,301.904c 1.776-0.768, 2.56-0.512, 2.304,0.768c 2.336-0.768-0.304-2.432-0.768-4.224
	C 355.968,299.632, 356.336,300.048, 355.632,301.904z M 314.464,336.032c-3.776,0.976, 3.888,2.096, 4.224,3.056c-1.28,0.00-2.16,1.328-1.664,2.448
	c 0.576,1.328, 1.52-1.584, 2.832-0.928c 1.552,0.16, 4.608,2.48, 3.04-2.00c-1.60-4.544-3.056-7.872-8.816-7.952
	C 312.016,332.736, 314.00,333.824, 314.464,336.032z M 328.704,351.744c 3.104,0.00, 0.384-2.304-0.304-2.304c 0.528-0.208-0.096-2.064-0.096-2.672
	c 2.88,0.032, 2.928,1.792, 4.992,2.304c-0.432-2.576-3.312-3.072-0.496-5.28c 1.488-1.168, 3.008-2.544, 2.416-4.32
	c 3.664,0.00, 4.208-3.52, 3.456-7.664c 2.032,0.00, 1.936-0.096, 1.936,1.936c 1.968-0.544, 1.824-2.32,0.00-2.32
	c-1.824-3.60-6.608-3.44-10.00-3.44c-0.032,2.784-0.56,2.96-3.136,2.176c-3.52-1.072-0.768,2.80-0.704,4.72
	c 0.384,0.00, 7.984-0.352, 3.456,1.152c-0.24,4.128-1.168,5.36-4.992,5.36c0.00,2.816-0.992,2.608-1.456,5.696
	C 323.12,351.648, 327.344,346.768, 328.704,351.744z M 327.536,326.832c0.00-0.944-1.92-1.696-2.304-0.368c 0.368-0.128, 0.512,0.00, 0.368,0.368
	C 326.256,326.832, 326.912,326.832, 327.536,326.832z M 296.00,368.00l-16.00,0.00 C 275.584,368.00, 272.00,371.584, 272.00,376.00C 272.00,380.416, 275.584,384.00, 280.00,384.00l 16.00,0.00 
	C 300.416,384.00, 304.00,380.416, 304.00,376.00C 304.00,371.584, 300.416,368.00, 296.00,368.00z M 202.784,226.40c 0.896,0.00, 1.936-0.352, 1.936-1.152
	C 203.552,225.248, 202.048,224.144, 202.784,226.40z M 188.192,225.616c-0.64-1.216-5.824-1.008-6.544,0.40c 1.92,0.00, 3.408-0.784, 5.376,0.00
	c0.00,1.056-0.88,1.904-1.536,3.056c 2.096,0.00, 4.448-1.60, 7.312-1.536c0.00,1.776-0.784-0.384,0.00,1.92c 1.20-0.304, 4.096-3.056, 4.224-4.208
	C 192.816,225.696, 192.624,225.616, 188.192,225.616z M 171.264,234.816c-1.968,0.00-5.76,1.712-6.928,3.456c 1.904-0.08, 3.792-0.864, 4.992,1.152
	c 4.88-0.496, 5.312-3.856, 9.232-3.856c 0.736-1.296, 4.928-4.272, 0.88-4.656C 176.384,230.624, 172.544,232.288, 171.264,234.816z
	 M 174.336,224.08c-1.424,0.00-3.776-0.624-2.688,2.32C 173.536,226.144, 174.432,225.36, 174.336,224.08z M 177.024,224.464
	c-0.768-0.128-1.536-0.256-2.304-0.384C 174.944,225.856, 176.624,227.84, 177.024,224.464z M 191.248,207.616
	c-0.304-1.072-0.256-1.136-1.52-1.136c 0.128,0.496, 0.24,0.992, 0.368,1.52C 190.496,207.872, 190.864,207.744, 191.248,207.616z
	 M 156.64,239.424c 0.368-0.128, 0.768-0.272, 1.152-0.384c 0.496-1.904, 1.536-0.96, 2.688-0.384C 160.48,236.432, 155.328,235.792, 156.64,239.424z"  />
<glyph unicode="&#xe085;" d="M 12.896,217.60C 8.576,217.60, 4.32,217.184,0.00,216.96c 1.728-63.232, 26.496-125.984, 74.752-174.208
	C 122.976-5.44, 185.664-30.24, 248.80-32.00c 3.488,64.80-19.136,130.816-68.576,180.256C 135.584,192.928, 76.128,217.60, 12.896,217.60z M 500.992,232.352
	c 3.68,0.00, 7.36,0.384, 11.008,0.576c-2.112,62.624-26.816,124.672-74.624,172.48C 389.568,453.152, 327.552,477.888, 264.96,480.00
	c-2.976-64.192, 19.776-129.376, 68.704-178.336C 378.368,256.96, 437.824,232.352, 500.992,232.352z M 305.76,273.792C 249.568,329.984, 222.976,404.608, 225.504,478.40
	C 170.40,471.808, 116.992,447.616, 74.752,405.344C 32.96,363.552, 8.864,310.912, 1.952,256.512c 3.68,0.16, 7.296,0.544, 10.976,0.544
	c 73.76,0.00, 143.104-28.704, 195.264-80.896c 56.576-56.576, 83.168-131.872, 80.224-206.176c 54.432,6.88, 107.136,31.008, 148.992,72.80
	c 42.176,42.24, 66.368,95.552, 72.992,150.624c-3.136-0.128-6.24-0.512-9.376-0.512C 427.264,192.864, 357.952,221.632, 305.76,273.792z"  />
<glyph unicode="&#xe086;" d="M 478.496,350.496 C 409.696,327.488 352.864,277.792 321.088,212.032 L 274.624,231.584 L 368.256,454.048 C 416.192,430.688 453.76,394.048 478.496,350.496 ZM 165.664,246.592 C 136.288,186.688 84.128,142.304 20.992,122.624 C -3.872,180.32 -7.648,246.976 14.912,310.048 L 165.664,246.592 ZM 202.944,261.76 C 227.744,330.656 223.136,406.624 191.52,471.712 C 239.776,484.288 292.032,482.976 342.048,465.088 L 248.416,242.624 L 202.944,261.76 ZM 164.16,462.88 C 193.824,404.288 198.72,335.36 176.672,272.832 L 25.952,336.256 C 55.264,396.448 105.568,440.32 164.16,462.88 ZM 191.904,235.552 L 237.44,216.416 L 143.808-6.016 C 96.064,17.184 58.592,53.60 33.888,96.928 C 102.976,119.744 159.84,169.248 191.904,235.552 ZM 491.264,324.768 C 515.872,267.232 519.552,200.80 497.088,137.984 L 347.264,200.992 C 376.448,260.352 428.512,304.896 491.264,324.768 ZM 348.448-14.624 C 318.816,44.128 314.24,112.576 336.256,174.816 L 486.08,111.744 C 456.896,51.808 406.816,8.00 348.448-14.624 ZM 310.048,185.888 C 285.344,117.248 289.44,41.76 321.024-23.488 C 272.608-36.256 220.128-35.008 169.952-17.056 L 263.584,205.408 L 310.048,185.888 Z"  />
<glyph unicode="&#xe087;" d="M 238.40,479.488C 92.192,470.272-17.344,333.504, 2.272,189.216c 17.952-132.256, 138.40-229.12, 271.136-220.672
	c 133.44,8.384, 237.44,123.072, 238.656,255.456C 510.72,370.752, 385.28,488.768, 238.40,479.488z M 436.48,92.96c-3.424,0.736-7.328,0.448-11.264-1.76
	c-3.616-2.016-7.20-3.936-10.752-5.952c-1.056,2.24-2.176,4.448-3.20,6.688c 3.36,1.312, 6.752,2.688, 10.176,4.00
	c 8.32,3.328, 14.016,10.88, 11.424,20.192c-2.176,7.936-11.872,14.816-20.192,11.488c-4.512-1.824-9.056-3.616-13.632-5.376
	c-0.80,2.368-1.632,4.80-2.368,7.264c 4.128,0.928, 8.256,1.952, 12.384,2.88c 20.64,4.864, 11.872,36.576-8.736,31.68
	c-4.00-0.928-8.00-1.888-12.00-2.816c-0.448,2.24-0.864,4.576-1.312,6.88c 3.68,0.512, 7.424,0.928, 11.136,1.44
	c 8.864,1.12, 16.448,6.624, 16.448,16.384c0.00,8.128-7.552,17.568-16.448,16.448c-5.184-0.64-10.304-1.312-15.424-1.952
	c-0.192,2.496-0.512,4.928-0.64,7.424c 4.576,0.00, 9.12,0.00, 13.696,0.00c 21.184,0.00, 21.184,32.832,0.00,32.832c-4.64,0.00-9.248,0.00-13.824,0.00
	c 0.064,2.496, 0.32,4.992, 0.512,7.488c 4.448-0.576, 8.864-1.12, 13.312-1.696c 8.864-1.12, 16.384,8.32, 16.384,16.416
	c0.00,9.792-7.488,15.296-16.384,16.416c-3.136,0.384-6.176,0.768-9.248,1.152c 0.448,2.336, 0.864,4.64, 1.312,6.976
	c 4.384-1.024, 8.672-2.048, 13.056-3.072c 20.576-4.864, 29.312,26.784, 8.672,31.648c-4.512,1.056-8.992,2.144-13.568,3.20
	c 0.80,2.464, 1.632,4.896, 2.496,7.328c 4.736-1.888, 9.44-3.744, 14.176-5.632c 8.32-3.296, 18.016,3.552, 20.192,11.456
	c 2.56,9.344-3.136,16.896-11.424,20.192c-3.616,1.408-7.20,2.848-10.752,4.256c 0.992,2.24, 2.112,4.48, 3.20,6.688
	c 4.00-2.176, 7.936-4.352, 11.872-6.528c 3.616-1.984, 7.136-2.496, 10.304-1.984C 463.104,317.472, 478.72,271.52, 479.168,224.00
	C 478.72,176.48, 463.648,130.72, 436.48,92.96z M 71.872,350.592c 1.056,1.60, 2.176,3.136, 3.296,4.672c 3.328-0.672, 7.04-0.224, 10.816,1.856
	C 89.92,359.296, 93.856,361.472, 97.824,363.648c 1.088-2.24, 2.176-4.448, 3.264-6.688C 97.472,355.52, 93.888,354.08, 90.336,352.672
	C 82.016,349.376, 76.288,341.824, 78.848,332.48c 2.176-7.936, 11.84-14.752, 20.192-11.456C 103.776,322.88, 108.512,324.768, 113.248,326.656
	c 0.832-2.432, 1.696-4.896, 2.464-7.36c-4.544-1.056-9.024-2.112-13.568-3.20c-20.608-4.864-11.84-36.544, 8.736-31.648
	C 115.232,285.44, 119.552,286.496, 123.904,287.488C 124.384,285.184, 124.832,282.88, 125.248,280.544C 122.176,280.16, 119.072,279.776, 116.00,279.36
	C 107.104,278.24, 99.584,272.768, 99.584,262.976c0.00-8.096, 7.52-17.536, 16.448-16.416C 120.416,247.104, 124.864,247.68, 129.312,248.224
	c 0.16-2.496, 0.416-4.992, 0.544-7.488c-4.64,0.00-9.216,0.00-13.856,0.00c-21.152,0.00-21.152-32.832,0.00-32.832c 4.576,0.00, 9.12,0.00, 13.696,0.00
	C 129.536,205.408, 129.28,202.976, 129.056,200.48C 123.904,201.088, 118.752,201.792, 113.60,202.40C 104.704,203.52, 97.216,194.08, 97.216,186.016
	c0.00-9.824, 7.52-15.328, 16.416-16.448c 3.712-0.512, 7.392-0.928, 11.136-1.44C 124.288,165.856, 123.904,163.584, 123.392,161.28
	c-4.00,0.928-8.00,1.888-12.00,2.816C 90.784,168.96, 82.048,137.28, 102.656,132.48c 4.16-0.992, 8.288-1.952, 12.416-2.944
	c-0.768-2.432-1.568-4.864-2.40-7.264c-4.544,1.76-9.056,3.552-13.632,5.376c-8.32,3.328-18.016-3.552-20.192-11.424
	c-2.56-9.376, 3.168-16.928, 11.456-20.256c 3.392-1.312, 6.816-2.688, 10.176-4.00c-1.024-2.24-2.112-4.448-3.20-6.624
	c-3.552,1.952-7.168,3.872-10.72,5.888c-4.00,2.176-7.872,2.496-11.328,1.76c-12.384,17.056-22.464,35.808-29.664,55.68
	C 21.12,216.16, 32.192,291.328, 71.872,350.592z M 188.448,11.04c-16.768,5.12-32.736,12.384-47.616,21.376c 9.824,5.696, 13.76,21.376, 0.928,28.448
	c-5.152,2.816-10.304,5.696-15.456,8.512C 128.00,72.832, 129.632,76.288, 131.20,79.776c 5.312-2.048, 10.592-4.192, 15.872-6.24
	c 8.352-3.328, 18.016,3.488, 20.192,11.424c 2.56,9.312-3.168,16.864-11.456,20.192c-4.192,1.696-8.416,3.328-12.64,4.992
	c 1.376,3.936, 2.656,7.872, 3.872,11.808c 4.832-1.12, 9.728-2.304, 14.56-3.424c 20.608-4.864, 29.344,26.816, 8.704,31.68
	c-5.024,1.184-10.048,2.368-15.104,3.552c 0.704,3.36, 1.376,6.816, 2.016,10.304C 162.88,163.328, 168.576,162.656, 174.24,161.92
	c 8.896-1.12, 16.416,8.32, 16.416,16.448c0.00,9.824-7.52,15.264-16.416,16.384C 169.984,195.296, 165.76,195.84, 161.504,196.352
	c 0.352,3.872, 0.608,7.68, 0.80,11.552c 4.896,0.00, 9.856,0.00, 14.752,0.00c 21.184,0.00, 21.184,32.832,0.00,32.832c-4.832,0.00-9.696,0.00-14.528,0.00
	c-0.032,0.384,0.00,0.768-0.032,1.152C 162.368,245.376, 162.112,248.864, 161.856,252.352c 5.056,0.64, 10.144,1.28, 15.232,1.92
	c 8.864,1.12, 16.448,6.624, 16.448,16.416c0.00,8.096-7.52,17.536-16.448,16.416c-6.40-0.832-12.832-1.632-19.264-2.432
	c-0.64,3.456-1.28,6.912-1.984,10.368c 4.80,1.152, 9.664,2.272, 14.464,3.424c 20.608,4.864, 11.872,36.544-8.704,31.68
	C 156.96,329.024, 152.32,327.936, 147.712,326.816c-1.248,4.00-2.56,7.968-3.936,11.904c 4.00,1.60, 8.032,3.20, 12.032,4.768
	c 8.32,3.296, 14.016,10.848, 11.456,20.192c-2.176,7.936-11.84,14.752-20.192,11.456C 141.888,373.12, 136.736,371.04, 131.552,368.992
	c-1.60,3.52-3.296,6.976-4.992,10.432C 131.04,381.92, 135.552,384.384, 140.032,386.88c 12.48,6.848, 9.056,21.856-0.16,27.904
	c 54.144,32.224, 121.60,40.96, 183.392,22.144c 17.44-5.28, 33.76-12.736, 48.864-21.984c-9.44-5.92-12.992-21.152-0.448-28.064
	c 4.512-2.496, 8.992-4.96, 13.504-7.424c-1.696-3.456-3.36-6.912-4.992-10.432c-5.184,2.048-10.368,4.096-15.488,6.144
	c-8.384,3.296-18.048-3.552-20.192-11.456c-2.56-9.344, 3.136-16.896, 11.424-20.192c 4.00-1.60, 8.00-3.20, 12.064-4.768
	c-1.376-3.936-2.688-7.904-3.936-11.904c-4.64,1.088-9.312,2.176-13.952,3.296c-20.576,4.864-29.312-26.784-8.672-31.648
	c 4.80-1.152, 9.632-2.272, 14.432-3.424c-0.672-3.424-1.312-6.88-1.952-10.368c-6.432,0.80-12.864,1.632-19.328,2.432
	c-8.864,1.12-16.384-8.32-16.384-16.416c0.00-9.824, 7.488-15.296, 16.384-16.416c 5.12-0.64, 10.176-1.28, 15.264-1.92
	c-0.256-3.456-0.512-6.944-0.64-10.464c-0.064-0.384-0.064-0.768-0.064-1.152c-4.80,0.00-9.696,0.00-14.56,0.00c-21.12,0.00-21.12-32.832,0.00-32.832
	c 4.928,0.00, 9.888,0.00, 14.816,0.00c 0.192-3.808, 0.448-7.68, 0.736-11.552c-4.192-0.512-8.448-1.056-12.672-1.568
	c-8.864-1.12-16.384-6.624-16.384-16.448c0.00-8.128, 7.488-17.568, 16.384-16.448c 5.696,0.736, 11.36,1.44, 16.992,2.176
	c 0.64-3.424, 1.312-6.88, 2.016-10.304c-4.992-1.184-10.048-2.368-15.072-3.552c-20.64-4.864-11.872-36.576, 8.672-31.68
	c 4.864,1.184, 9.76,2.304, 14.56,3.424c 1.248-3.936, 2.496-7.872, 3.872-11.808c-4.192-1.632-8.448-3.328-12.64-4.992
	c-8.32-3.264-14.016-10.816-11.424-20.192c 2.112-7.936, 11.808-14.752, 20.192-11.424c 5.248,2.048, 10.56,4.192, 15.872,6.24
	c 1.568-3.488, 3.20-6.944, 4.864-10.368c-5.12-2.88-10.304-5.696-15.424-8.576c-12.736-7.008-8.928-22.56, 0.736-28.32
	C 316.224-0.16, 249.632-7.52, 188.448,11.04z"  />
<glyph unicode="&#xe088;" d="M 4.544,122.336 L 154.336-27.456 C 93.792-37.056 42.528-31.392 21.568-10.432 C 0.64,10.528 -5.056,61.728 4.544,122.336 ZM 357.696,475.488 C 418.24,485.088 469.504,479.392 490.464,458.464 C 511.456,437.504 517.088,386.272 507.52,325.696 L 357.696,475.488 ZM 119.712,360.32C 70.176,310.784, 36.00,243.136, 17.216,178.56l 193.344-193.376c 64.576,18.816, 132.192,52.96, 181.76,102.496
	s 83.68,117.216, 102.496,181.792L 301.504,462.816C 236.896,444.00, 169.248,409.856, 119.712,360.32z M 358.688,277.312l-14.496-14.496l-17.44,17.44L 304.064,257.568
	l 17.44-17.408L 307.008,225.664L 289.568,243.072L 266.944,220.416l 17.408-17.44L 269.856,188.48L 252.448,205.92L 229.792,183.264l 17.408-17.44l-14.496-14.496
	L 215.264,168.736l-22.656-22.688l 17.44-17.408L 195.52,114.144L 146.144,163.488l 14.496,14.496l 17.44-17.408l 22.656,22.656L 183.328,200.672l 14.496,14.496
	L 215.264,197.76l 22.688,22.656L 220.512,237.856l 14.496,14.496l 17.44-17.44l 22.656,22.656L 257.664,275.008l 14.496,14.496l 17.408-17.44l 22.688,22.688
	L 294.816,312.16l 14.496,14.496L 358.688,277.312L 358.688,277.312z"  />
<glyph unicode="&#xe089;" d="M 267.744,215.776c-1.024-13.12-2.752-48.48, 2.944-91.68c 46.336,18.368, 168.928,77.056, 221.216,199.552
	c-9.632,22.784-22.688,44.448-39.232,64.256C 403.744,285.664, 295.936,229.12, 267.744,215.776z M 138.656,269.696C 114.272,278.112, 87.36,284.896, 59.20,287.456
	c-5.504-29.952-22.72-152.192, 33.824-261.12c 28.832-23.84, 61.696-40.256, 96.096-49.536C 116.832,91.616, 131.04,225.024, 138.656,269.696z M 256.416,222.944
	l-0.64,1.408L 254.88,223.136L 256.416,222.944z M 256.96,237.984C 269.376,243.936, 300.64,260.16, 334.752,286.40C 295.936,317.184, 184.064,394.08, 52.00,378.496
	C 36.384,357.952, 24.32,335.68, 15.744,312.288C 128.992,320.80, 231.936,255.328, 256.96,237.984z M 310.656-0.704c 4.384-7.488, 9.28-14.784, 14.496-21.92
	c 40.992,11.424, 79.744,33.152, 111.968,65.408c 21.248,21.248, 37.728,45.408, 49.984,71.072C 421.536,44.064, 340.672,10.08, 310.656-0.704z M 503.264,290.24
	c-62.944-120.576-185.60-175.20-228.48-191.104c 4.864-25.312, 12.416-52.032, 24.32-77.76c 29.216,10.40, 143.744,56.864, 209.44,160.736
	C 514.432,218.048, 512.672,254.944, 503.264,290.24z M 34.24,288.48c-8.736-0.032-17.536-0.64-26.336-1.632C-9.824,216.768, 2.432,140.80, 44.80,79.136
	C 17.472,170.784, 28.672,257.60, 34.24,288.48z M 434.496,407.488c-55.072,53.568-128.256,77.44-199.488,71.616c 93.312-21.856, 163.296-74.976, 187.68-95.552
	C 427.04,391.264, 430.912,399.264, 434.496,407.488z M 243.168,217.536C 232.096,225.12, 202.368,244.16, 162.304,260.768c-7.264-48.672-18.08-184.00, 61.152-290.688
	c 25.12-3.232, 50.592-2.72, 75.616,1.504C 235.20,65.664, 240.64,187.712, 243.168,217.536z M 354.272,302.464c 19.488,16.896, 38.784,36.832, 55.072,60.00
	c-23.52,20.00-120.896,96.00-243.584,101.056C 132.64,451.104, 101.472,431.744, 74.848,405.088C 74.752,405.024, 74.72,404.96, 74.688,404.896
	C 210.624,410.592, 319.264,331.456, 354.272,302.464z"  />
<glyph unicode="&#xe08a;" d="M 476.224,442.784C 452.352,467.136, 414.688,480.00, 367.296,480.00C 278.464,480.00, 175.456,434.816, 111.04,367.648
		C 67.072,321.824, 28.832,250.656, 11.264,181.984c-20.128-78.56-11.712-141.76, 23.68-177.888C 58.112-19.488, 94.048-32.00, 138.944-32.00c0.00,0.00,0.00,0.00, 0.032,0.00
		c 87.584,0.00, 197.408,46.752, 261.024,111.168c 65.44,66.24, 111.296,172.96, 111.424,259.52C 511.52,383.168, 499.328,419.168, 476.224,442.784z M 127.904,116.896
		c0.00,0.00-31.36-14.592-44.384-10.656c-10.624,3.232-16.768,35.744-7.648,79.104C 85.28,230.08, 101.344,290.752, 154.144,349.92
		C 154.176,349.952, 154.208,349.984, 154.24,350.016c 28.48,29.664, 65.60,54.72, 107.36,72.48c 39.04,16.576, 80.192,25.696, 115.904,25.696
		c 26.496,0.00, 48.672-4.96, 64.192-14.144c 6.144-4.256, 6.528-27.36-7.936-54.08C 419.328,353.28, 375.68,294.08, 323.648,248.064
		C 271.616,201.984, 156.00,127.136, 127.904,116.896z M 377.728,122.848c-35.328-35.776-88.672-65.888-142.24-82.784
		c-1.664-0.352-3.296-0.672-4.864-0.96c-20.672-3.712-45.472-5.152-55.68-2.688c-13.664,3.328-10.432,15.392, 0.352,22.56
		c 10.752,7.168, 96.672,75.424, 142.848,122.56c 42.432,43.328, 129.472,135.552, 153.984,185.952c 0.672,1.44, 2.336,1.44, 2.496,0.00
		c 0.672-6.464, 0.928-12.736, 0.896-18.464C 475.328,275.168, 434.208,180.032, 377.728,122.848z"  />
<glyph unicode="&#xe08b;" d="M 190.08,353.184 C 176.256,346.176 163.808,337.12 153.056,326.40 L 103.392,376.352 C 119.328,392.192 137.792,405.696 158.304,416.032 L 190.08,353.184 ZM 111.68,200.416 C 114.112,184.832 118.912,170.24 125.664,156.864 L 62.784,125.088 C 52.80,144.896 45.664,166.528 42.08,189.60 L 111.68,200.416 ZM 126.08,289.504 C 119.136,276.032 114.272,261.408 111.808,246.112 L 42.24,257.344 C 45.92,280.00 53.152,301.696 63.424,321.696 L 126.08,289.504 ZM 359.616,325.792 C 348.80,336.64 336.384,345.76 322.752,352.80 L 354.88,415.456 C 375.072,405.056 393.568,391.552 409.568,375.456 L 359.616,325.792 ZM 279.296,367.04 C 264.544,369.408 249.184,369.568 233.60,367.136 L 222.784,436.736 C 245.856,440.32 268.672,440.096 290.56,436.608 L 279.296,367.04 ZM 321.952,92.48 C 335.744,99.424 348.256,108.544 359.008,119.232 L 408.64,69.28 C 392.704,53.408 374.272,39.936 353.76,29.60 L 321.952,92.48 ZM 385.952,156.128 C 392.864,169.632 397.76,184.256 400.256,199.552 L 469.824,188.288 C 466.144,165.632 458.944,143.936 448.64,123.936 L 385.952,156.128 ZM 449.248,320.544 C 459.264,300.768 466.368,279.136 469.952,256.032 L 469.952,256.032 L 400.32,245.216 L 400.32,245.216 C 397.92,260.768 393.12,275.392 386.368,288.736 L 449.248,320.544 ZM 232.768,78.592 C 247.488,76.256 262.848,76.096 278.464,78.496 L 289.248,8.864 C 266.144,5.28 243.36,5.504 221.472,9.024 L 232.768,78.592 ZM 152.416,119.84 C 163.264,108.992 175.712,99.872 189.312,92.864 L 157.152,30.208 C 136.928,40.576 118.464,54.08 102.464,70.176 L 152.416,119.84 ZM 161.664,317.76 C 151.744,307.84 143.392,296.416 136.96,283.936 L 126.08,289.504 C 133.12,303.136 142.208,315.584 153.056,326.40 L 161.664,317.76 ZM 123.776,202.272 L 123.776,202.272 L 111.712,200.416 C 111.68,200.416 111.68,200.416 111.68,200.416 C 109.312,216.00 109.408,231.36 111.808,246.112 L 123.904,244.16 C 121.664,230.624 121.536,216.544 123.776,202.272 ZM 235.488,355.072 C 221.216,352.832 207.84,348.448 195.616,342.304 L 190.08,353.184 C 203.424,359.936 218.016,364.736 233.60,367.136 L 235.488,355.072 ZM 136.544,162.40 C 142.944,149.728 151.264,138.304 161.088,128.48 L 152.416,119.84 C 141.728,130.592 132.64,143.04 125.664,156.864 L 136.544,162.40 ZM 317.12,341.888 C 304.80,348.256 291.36,352.704 277.344,354.976 L 279.296,367.04 C 294.624,364.576 309.248,359.712 322.752,352.736 L 317.12,341.888 ZM 350.368,127.904 C 360.32,137.824 368.672,149.216 375.072,161.696 L 385.952,156.128 C 378.944,142.528 369.888,130.08 359.008,119.232 L 350.368,127.904 ZM 388.192,201.504 C 390.368,215.008 390.496,229.088 388.256,243.328 L 400.32,245.216 C 402.752,229.632 402.624,214.272 400.256,199.552 L 388.192,201.504 ZM 350.944,317.184 L 359.648,325.792 C 370.336,315.008 379.392,302.56 386.40,288.736 L 375.52,283.232 C 369.056,295.904 360.768,307.328 350.944,317.184 ZM 194.88,103.744 C 207.264,97.408 220.672,92.928 234.656,90.656 L 232.736,78.592 C 217.408,81.056 202.816,85.92 189.312,92.896 L 194.88,103.744 ZM 276.544,90.56 C 290.816,92.768 304.192,97.184 316.448,103.36 L 321.952,92.448 C 308.64,85.728 294.016,80.896 278.432,78.464 L 276.544,90.56 ZM 234.336,233.952 C 233.184,231.712 232.32,229.28 231.936,226.72 L 123.872,244.16 C 126.112,258.176 130.592,271.584 136.96,283.936 L 234.336,233.952 ZM 238.688,205.632 C 240.544,203.808 242.624,202.272 244.896,201.152 L 194.88,103.776 C 182.40,110.176 170.976,118.496 161.056,128.48 L 238.688,205.632 ZM 231.904,219.072 C 232.288,216.448 233.12,214.016 234.24,211.808 L 136.544,162.40 C 130.40,174.624 125.984,188.00 123.776,202.272 L 231.904,219.072 ZM 245.024,244.608 C 242.688,243.424 240.608,241.92 238.816,240.128 L 161.664,317.76 C 171.52,327.584 182.944,335.904 195.616,342.304 L 245.024,244.608 ZM 259.936,246.912 C 257.44,247.328 254.848,247.328 252.256,246.944 L 235.488,355.072 C 249.76,357.312 263.84,357.152 277.376,354.976 L 259.936,246.912 ZM 277.696,211.68 C 278.88,213.952 279.712,216.384 280.128,218.944 L 388.16,201.504 C 385.92,187.52 381.408,174.08 375.04,161.696 L 277.696,211.68 ZM 317.12,341.888 C 329.632,335.488 341.056,327.136 350.944,317.184 L 273.344,240.00 C 271.52,241.824 269.44,243.36 267.168,244.544 L 317.12,341.888 ZM 280.128,226.592 C 279.776,229.152 278.944,231.616 277.824,233.824 L 375.488,283.232 C 381.664,271.008 386.048,257.632 388.224,243.36 L 388.224,243.36 L 280.128,226.592 L 280.128,226.592 ZM 252.128,198.688 C 254.624,198.304 257.184,198.272 259.776,198.656 L 276.544,90.56 C 262.272,88.352 248.192,88.512 234.656,90.656 L 252.128,198.688 ZM 267.04,201.024 C 269.344,202.176 271.424,203.712 273.216,205.536 L 350.368,127.904 C 340.48,118.048 329.088,109.76 316.416,103.328 L 267.04,201.024 ZM 265.76,224.352c 0.832-5.408-2.848-10.432-8.256-11.264C 252.16,212.224, 247.104,215.936, 246.272,221.312
	C 245.44,226.656, 249.152,231.744, 254.528,232.576S 264.928,229.696, 265.76,224.352zM 484.512,338.368c-12.256,24.224-28.192,46.08-46.944,64.928c-18.944,19.008-40.736,34.976-64.64,47.264
	c-23.68,12.16-49.312,20.704-76.128,25.056C 270.976,479.744, 244.00,480.00, 216.736,475.776l0.00,0.00C 189.44,471.52, 163.872,463.104, 140.48,451.296
	C 116.224,439.04, 94.40,423.136, 75.552,404.352C 56.512,385.408, 40.544,363.584, 28.288,339.712c-12.16-23.616-20.704-49.28-25.024-76.064
	c-4.192-25.888-4.448-52.80-0.192-80.096l0.00,0.00c 4.224-27.296, 12.672-52.864, 24.48-76.288c 12.256-24.192, 28.16-46.016, 46.944-64.864
	c 18.944-19.04, 40.768-35.008, 64.64-47.296c 23.648-12.16, 49.28-20.704, 76.096-25.024c 25.888-4.16, 52.80-4.416, 80.096-0.192l0.00,0.00
	c 27.264,4.256, 52.864,12.672, 76.256,24.48c 24.256,12.256, 46.048,28.16, 64.928,46.944c 19.008,18.944, 34.944,40.736, 47.264,64.672
	c 12.128,23.648, 20.672,49.28, 24.992,76.096c 4.192,25.824, 4.448,52.768, 0.192,80.064l0.00,0.00C 504.736,289.376, 496.32,314.976, 484.512,338.368z
	 M 484.192,185.984c-3.936-24.224-11.616-47.328-22.624-68.672l-12.928,6.624c-10.368-20.192-23.872-38.656-40.00-54.656l 10.304-10.336
	c-17.056-16.928-36.736-31.296-58.624-42.336l-6.56,12.992c-19.744-10.016-41.44-17.12-64.512-20.704l0.00,0.00l 2.24-14.336
	c-24.672-3.84-48.96-3.616-72.32,0.16l 2.304,14.336c-22.656,3.648-44.352,10.912-64.352,21.184l-6.656-12.96
	c-21.536,11.104-41.248,25.504-58.304,42.688l 10.304,10.24c-15.872,15.936-29.344,34.40-39.68,54.912l-12.992-6.56
	c-10.688,21.088-18.24,44.192-22.08,68.80l 14.40,2.24l0.00,0.00C 38.528,212.672, 38.72,235.456, 42.24,257.344L 27.872,259.648
	c 3.904,24.192, 11.616,47.328, 22.624,68.672l 12.896-6.656c 10.432,20.192, 23.904,38.656, 40.00,54.688l-10.24,10.304
	c 16.992,16.928, 36.704,31.328, 58.56,42.368l 6.592-12.992c 19.744,9.984, 41.408,17.12, 64.512,20.672l-2.24,14.40
	c 24.672,3.872, 48.96,3.584, 72.32-0.16L 290.56,436.608c 22.624-3.648, 44.32-10.912, 64.32-21.184l 6.688,12.96
	c 21.504-11.104, 41.248-25.504, 58.304-42.688l-10.304-10.24c 15.872-15.936, 29.312-34.40, 39.68-54.88l 12.992,6.56
	c 10.688-21.12, 18.24-44.192, 22.048-68.832l0.00,0.00l-14.368-2.24c 3.616-23.072, 3.36-45.856-0.128-67.744L 484.192,185.984z"  />
<glyph unicode="&#xe08c;" d="M 256.00,480.00C 114.592,480.00,0.00,365.408,0.00,224.00s 114.592-256.00, 256.00-256.00c 141.376,0.00, 256.00,114.56, 256.00,256.00S 397.408,480.00, 256.00,480.00z M 309.344,138.656
	c-76.608,0.00-138.656,62.08-138.656,138.656C 170.656,353.92, 232.736,416.00, 309.344,416.00C 385.92,416.00, 448.00,353.92, 448.00,277.312C 448.00,200.736, 385.92,138.656, 309.344,138.656z
	 M 366.496,294.752c-8.16,5.376-17.632,8.224-28.352,8.416c 5.632,8.896, 8.00,17.12, 7.072,24.64c-0.864,7.552-2.752,14.016-5.664,19.456
	C 333.12,359.36, 323.04,367.296, 309.376,370.944C 295.68,374.656, 280.48,372.096, 263.808,363.264C 247.136,354.368, 236.512,343.232, 231.936,329.792
	C 227.296,316.448, 228.192,303.68, 234.656,291.488c 2.88-5.44, 7.20-10.592, 12.928-15.584C 253.344,271.008, 261.664,267.968, 272.64,266.88
	c-6.112-8.192-9.28-17.184-9.44-27.008c-0.192-9.856, 2.144-19.424, 7.168-28.80c 7.456-14.016, 18.592-23.392, 33.44-28.128
	c 14.816-4.768, 31.552-2.24, 50.176,7.68c 18.656,9.92, 30.528,22.56, 35.68,37.952c 5.216,15.392, 4.064,30.048-3.36,44.096
	C 381.28,282.016, 374.72,289.408, 366.496,294.752z M 281.504,292.672c-5.792,1.856-10.24,5.792-13.472,11.84c-3.52,6.656-4.416,12.80-2.624,18.496
	c 1.728,5.696, 5.952,10.272, 12.544,13.824c 6.688,3.52, 12.832,4.416, 18.464,2.656c 5.632-1.76, 10.176-5.984, 13.728-12.608
	C 313.344,320.80, 314.112,314.944, 312.512,309.12c-1.60-5.76-5.76-10.40-12.48-13.984C 293.472,291.648, 287.264,290.816, 281.504,292.672z M 355.04,234.432
	c-1.888-6.784-6.496-12.192-14.016-16.192C 333.504,214.24, 326.40,213.376, 319.712,215.68c-6.624,2.272-12.16,7.456-16.512,15.68
	C 298.656,239.872, 297.408,247.488, 299.392,254.176c 2.016,6.752, 6.688,12.00, 14.048,15.936c 7.328,3.904, 14.304,4.832, 21.024,2.688
	c 6.656-2.08, 12.256-7.392, 16.768-15.936C 355.648,248.672, 356.864,241.216, 355.04,234.432z"  />
<glyph unicode="&#xe08d;" d="M 189.536,471.936L 189.536,292.48 l 211.20,89.696L 189.536,471.936z M 252.448,100.736c-26.304,0.00-51.68-0.928-75.872-2.496L 176.576,480.00 L 138.656,480.00 l0.00-384.80 
	c-100.448-10.24-138.688-33.632-138.688-60.80c0.00-36.64, 95.328-66.368, 252.48-66.368S 512.00-2.24, 512.00,34.368S 409.568,100.736, 252.448,100.736z M 354.88-16.80
	c-27.328,0.00-49.376,22.048-49.376,49.312c0.00,27.20, 22.048,49.248, 49.376,49.248c 27.20,0.00, 49.248-22.048, 49.248-49.248
	C 404.128,5.248, 382.048-16.80, 354.88-16.80z"  />
<glyph unicode="&#xe08e;" d="M 364.64,332.608c-105.888,105.92-214.624,168.864-242.88,140.608c-28.224-28.224, 34.752-136.96, 140.64-242.848
	c 105.888-105.856, 214.624-168.832, 242.88-140.608C 533.504,117.984, 470.528,226.72, 364.64,332.608z M 236.80,204.80C 130.944,310.688, 67.968,419.424, 96.224,447.68
	L 6.752,358.176c-28.256-28.256, 34.688-136.992, 140.576-242.88c 105.952-105.888, 214.656-168.80, 242.912-140.608l 89.44,89.504
	C 451.424,35.968, 342.688,98.944, 236.80,204.80z"  />
<glyph unicode="&#xe08f;" d="M 512.00,224.032c0.00,17.216-1.888,34.56-5.376,51.616l 0.192,0.00 L 505.344,281.92c0.00,0.00,0.00,0.00,0.00,0.00l-0.896,3.968l-0.16,0.00 
	c-10.432,42.08-31.52,80.896-61.28,112.768l 0.064,0.096l-2.656,2.784l-4.704,4.896l-0.128-0.192c-29.024,28.608-64.416,49.888-103.104,61.984
	l 0.096,0.192l-6.304,1.792l-3.84,1.088l-0.032-0.064c-43.424,11.648-89.344,11.648-132.736,0.00L 189.60,471.328l-3.84-1.088L 179.424,468.448
	L 179.52,468.256C 140.832,456.128, 105.472,434.848, 76.448,406.272L 76.352,406.464L 71.616,401.568L 68.928,398.784l 0.064-0.128
	C 39.296,366.816, 18.144,328.00, 7.712,285.92L 7.552,285.92 L 6.656,281.952L 5.216,275.648l 0.192,0.00 C 1.888,258.592,0.00,241.28,0.00,224.032
	c0.00-23.296, 3.168-46.368, 9.376-68.672L 9.248,155.36 l 2.016-6.624l 1.088-3.616l 0.128,0.00 c 12.416-38.272, 33.984-73.408, 62.656-102.08l-0.064-0.128l 2.88-2.784
	l 4.704-4.576l 0.128,0.224c 29.984-27.616, 66.048-47.68, 105.12-58.432L 187.84-22.88l 6.592-1.632l 3.744-0.928l 0.064,0.128
	C 217.216-29.696, 236.64-32.00, 256.00-32.00s 38.784,2.304, 57.76,6.688l 0.064-0.128l 3.744,0.928l 0.032,0.00 l 6.56,1.632l-0.096,0.224
	c 39.072,10.784, 75.168,30.816, 105.152,58.432l 0.096-0.224l 4.704,4.576l 2.88,2.784l-0.064,0.128c 28.672,28.672, 50.24,63.808, 62.656,102.08l 0.128,0.00 
	l 1.088,3.616l 2.016,6.624l-0.128,0.00 C 508.832,177.664, 512.00,200.704, 512.00,224.032z M 501.76,224.032c0.00-23.328-3.264-46.432-9.728-68.672l-44.672,0.00 
	l-17.376,30.048l-17.344,30.08l 17.344,30.048l 17.376,30.08l 48.896,0.00 C 499.904,258.624, 501.76,241.28, 501.76,224.032z M 403.744,90.08l-69.44,0.00 l-17.376,30.08
	l-17.344,30.048l 17.344,30.08l 17.376,30.048l 69.44,0.00 l 17.376-30.048l 17.344-30.08l-17.344-30.048L 403.744,90.08z M 290.72,24.832l-69.44,0.00 l-17.344,30.048
	L 186.56,84.96l 17.376,30.08l 17.344,30.048l 69.44,0.00 l 17.376-30.048l 17.344-30.08l-17.344-30.048L 290.72,24.832z M 108.256,90.08l-17.376,30.08
	l-17.344,30.048l 17.344,30.08l 17.376,30.048l 69.44,0.00 l 17.376-30.048l 17.344-30.08l-17.344-30.048l-17.376-30.08L 108.256,90.08 z M 73.536,280.768l 17.344,30.08
	l 17.376,30.08l 69.44,0.00 l 17.376-30.08l 17.344-30.08l-17.344-30.08L 177.696,220.64l-69.44,0.00 L 90.88,250.688L 73.536,280.768z M 221.28,406.208l 69.44,0.00 l 17.376-30.08
	l 17.344-30.048l-17.344-30.08l-17.376-30.08l-69.44,0.00 l-17.344,30.08L 186.56,346.048l 17.376,30.048L 221.28,406.208z M 403.744,340.928l 17.376-30.08l 17.344-30.08
	l-17.344-30.08l-17.376-30.048l-69.44,0.00 L 316.928,250.688l-17.344,30.08l 17.344,30.08l 17.376,30.08L 403.744,340.928 z M 290.72,155.36l-69.44,0.00 L 203.936,185.44
	L 186.56,215.52l 17.376,30.048l 17.344,30.08l 69.44,0.00 l 17.376-30.08l 17.344-30.048l-17.344-30.08L 290.72,155.36z M 493.856,285.92l-46.496,0.00 l-17.376,30.048
	l-17.344,30.08l 25.056,43.424C 464.576,359.936, 483.84,324.384, 493.856,285.92z M 327.296,459.264c 38.816-11.744, 74.304-33.12, 103.072-62.048l-26.592-46.016
	l-69.44,0.00 l-17.376,30.08L 299.584,411.328l 13.664,23.648L 327.296,459.264z M 194.912,462.112c 40.032,10.272, 82.144,10.272, 122.176,0.00L 290.72,416.448l-69.44,0.00 
	L 207.712,439.936L 194.912,462.112z M 184.704,459.264l 11.968-20.672l 15.712-27.264l-17.344-30.08L 177.696,351.20l-69.44,0.00 l-26.56,46.016
	C 110.40,426.144, 145.92,447.52, 184.704,459.264z M 74.304,389.472l 7.872-13.632l 17.184-29.792l-17.344-30.08L 64.672,285.92L 18.144,285.92 
	C 28.16,324.384, 47.424,359.936, 74.304,389.472z M 10.24,224.032c0.00,17.216, 1.856,34.56, 5.504,51.616l 48.896,0.00 l 17.376-30.048l 17.344-30.08l-17.344-30.08
	l-17.376-30.048L 19.968,155.392 C 13.536,177.632, 10.24,200.704, 10.24,224.032z M 64.672,145.12l 17.376-30.048l 17.344-30.08l-18.944-32.832
	c-25.856,26.40-45.472,58.304-57.248,92.992L 64.672,145.152 z M 88.00,44.736l 20.256,35.104l 69.44,0.00 l 17.376-30.048l 17.344-30.048L 199.04-3.488l-5.856-10.112
	C 153.984-3.264, 117.76,16.832, 88.00,44.736z M 203.552-16.096l 17.728,30.688l 69.44,0.00 l 9.472-16.416l 8.256-14.272
	C 273.952-23.616, 238.048-23.616, 203.552-16.096z M 318.816-13.60l-11.232,19.392l-8.00,13.92l 17.344,30.048l 17.376,30.08l 69.44,0.00 l 4.384-7.552
	l 15.872-27.552C 394.24,16.832, 358.016-3.264, 318.816-13.60z M 431.552,52.128l-15.04,26.048l-3.904,6.784l 17.344,30.08l 17.376,30.048l 41.44,0.00 
	C 477.024,110.432, 457.376,78.528, 431.552,52.128z"  />
<glyph unicode="&#xe084;" d="M 356.384,480.00c 43.072-16.064, 80.864-42.816, 110.048-77.376c 20.512-35.84, 24.576-54.048, 23.328-63.104l-82.56-30.176L 318.816,365.44
	C 312.672,397.536, 298.24,449.44, 293.632,465.792C 316.00,479.648, 352.32,480.00, 356.384,480.00zM 274.272,465.696L 274.112,465.664c 0.192-0.64, 18.144-63.104, 25.568-100.384L 219.904,299.744L 92.00,318.784c0.00,0.00-7.936,34.016-7.808,61.408
	L 84.192,380.16C 84.704,380.832, 129.28,452.288, 203.744,475.456C 203.744,475.456, 248.032,473.376, 274.272,465.696zM 146.848,468.832 C 102.88,446.848 65.952,413.088 40.064,371.552 C 49.376,380.576 60.544,389.824 71.232,394.336 C 79.52,405.92 107.328,442.08 146.848,468.832 ZM 0.064,232.416c0.00,4.544, 0.48,8.96, 0.704,13.504c 7.232-12.608, 17.728-22.08, 25.376-27.872c 6.432-24.448, 24.736-86.816, 54.816-136.32
	c-0.864-19.68, 0.96-33.12, 3.20-42.144C 32.576,87.872, 0.064,156.32, 0.064,232.416zM 97.60,90.496c-30.976,50.528-49.60,117.92-54.40,136.896c 19.328,41.216, 44.384,72.352, 44.384,72.352l 125.216-18.24
	c 14.208-41.024, 34.112-83.68, 43.712-103.616c-13.952-20.768-53.056-78.656-76.16-107.104C 158.176,70.432, 119.328,82.848, 97.60,90.496zM 264.48-32.00c-22.976,0.00-45.12,3.232-66.40,8.736c 22.08,0.672, 35.136,5.952, 42.56,10.976c 6.688-1.44, 26.016-5.12, 51.808-5.12
	c 26.304,0.00, 59.264,4.00, 91.808,18.016c 1.76-0.608, 3.424-0.896, 5.184-1.12C 352.256-20.608, 309.632-32.00, 264.48-32.00zM 382.496,20.256c-66.496-31.328-139.136-13.92-139.904-13.728l-5.44,2.784c-19.712,18.08-36.448,45.824-39.648,51.392
	c-0.16,0.32-0.224,0.64-0.384,0.896c 23.744,29.856, 60.544,84.192, 74.528,105.12c 75.008,3.264, 104.576,9.184, 104.576,9.184
	c 0.256-0.416, 38.368-50.112, 56.512-94.624C 423.616,59.584, 397.184,34.432, 382.496,20.256zM 504.00,128.992c-30.304-23.904-57.12-33.312-57.12-33.312c-11.936,23.616-53.952,91.36-53.952,91.36
	c 13.888,34.496, 19.488,82.08, 22.368,105.248l 79.008,28.864c 19.552-18.976, 29.888-51.68, 33.312-64.576c 0.736-8.00, 1.248-16.064, 1.248-24.192
	c0.00-39.072-8.672-75.968-24.00-109.376C 504.864,127.008, 504.00,128.992, 504.00,128.992z"  />
<glyph unicode="&#xe001;" d="M 512.00,287.996L 316.434,287.996 L 256.00,473.991l-60.433-185.995L0.00,287.996 l 158.217-114.952L 97.783-12.951L 256.00,102.00l 158.216-114.95l-60.433,185.994
	L 512.00,287.996z M 256.00,141.554L 256.00,370.437 l 37.185-114.44l 120.33,0.00 l-97.35-70.729l 37.184-114.44L 256.00,141.554z"  />
<glyph unicode="&#xe092;" d="M 448.00,128.00l-32.00,0.00 c-35.344,0.00-64.00,28.656-64.00,64.00s 28.656,64.00, 64.00,64.00l 32.00,0.00 c 35.344,0.00, 64.00-28.656, 64.00-64.00
	S 483.344,128.00, 448.00,128.00z M 448.00,224.00l-32.00,0.00 c-17.664,0.00-32.00-14.336-32.00-32.00s 14.336-32.00, 32.00-32.00l 32.00,0.00 c 17.664,0.00, 32.00,14.336, 32.00,32.00S 465.664,224.00, 448.00,224.00z M 320.00,192.00
	c0.00-1.376, 0.336-2.64, 0.40-4.00C 320.336,186.656, 320.00,185.376, 320.00,184.00c0.00-16.832, 6.016-32.096, 15.68-44.352C 352.816,113.408, 382.336,96.00, 416.00,96.00l 64.00,0.00 
	l0.00-64.00 c0.00-17.664-14.336-32.00-32.00-32.00L 32.00,0.00 c-17.664,0.00-32.00,14.336-32.00,32.00L0.00,344.00 L0.00,352.00 L0.00,392.00 c0.00,25.168, 16.72,46.224, 39.60,53.264C 42.064,446.848, 44.848,448.00, 48.00,448.00l 416.00,0.00 
	c 8.848,0.00, 16.00-7.152, 16.00-16.00s-7.152-16.00-16.00-16.00L 176.00,416.00 L 106.40,416.00 L 48.00,416.00 C 39.152,416.00, 32.00,408.848, 32.00,400.00l0.00-16.00 l 416.00,0.00 c 17.664,0.00, 32.00-14.336, 32.00-32.00l0.00-64.00 l-64.00,0.00 C 362.992,288.00, 320.00,245.008, 320.00,192.00z
	 M 40.00,32.00l 400.00,0.00 c 4.416,0.00, 8.00,3.584, 8.00,8.00S 444.416,48.00, 440.00,48.00l-400.00,0.00 C 35.584,48.00, 32.00,44.416, 32.00,40.00S 35.584,32.00, 40.00,32.00z M 448.00,344.00
	C 448.00,348.416, 444.416,352.00, 440.00,352.00l-400.00,0.00 C 35.584,352.00, 32.00,348.416, 32.00,344.00S 35.584,336.00, 40.00,336.00l 400.00,0.00 C 444.416,336.00, 448.00,339.584, 448.00,344.00z"  />
<glyph unicode="&#xe093;" d="M 480.00,416.00L 32.00,416.00 C 14.336,416.00,0.00,401.664,0.00,384.00l0.00-320.00 c0.00-17.664, 14.336-32.00, 32.00-32.00l 448.00,0.00 c 17.664,0.00, 32.00,14.336, 32.00,32.00L 512.00,384.00 
		C 512.00,401.664, 497.664,416.00, 480.00,416.00z M 48.00,384.00l 416.00,0.00 c 8.848,0.00, 16.00-7.152, 16.00-16.00l0.00-48.00 L 32.00,320.00 L 32.00,368.00 C 32.00,376.848, 39.152,384.00, 48.00,384.00z M 464.00,64.00L 48.00,64.00 c-8.848,0.00-16.00,7.152-16.00,16.00l0.00,144.00 l 448.00,0.00 l0.00-144.00 
		C 480.00,71.152, 472.848,64.00, 464.00,64.00z"  />
<glyph unicode="&#xe094;" d="M 112.00,96.00L 16.00,96.00 c-8.848,0.00-16.00-7.152-16.00-16.00l0.00-96.00 c0.00-8.848, 7.152-16.00, 16.00-16.00l 96.00,0.00 c 8.848,0.00, 16.00,7.152, 16.00,16.00l0.00,96.00 
			C 128.00,88.848, 120.848,96.00, 112.00,96.00z M 96.00,16.00c0.00-8.848-7.152-16.00-16.00-16.00L 48.00,0.00 c-8.848,0.00-16.00,7.152-16.00,16.00l0.00,32.00 c0.00,8.848, 7.152,16.00, 16.00,16.00l 32.00,0.00 c 8.848,0.00, 16.00-7.152, 16.00-16.00L 96.00,16.00 z
			 M 496.00,64.00L 208.00,64.00 c-8.848,0.00-16.00-7.152-16.00-16.00l0.00-32.00 c0.00-8.848, 7.152-16.00, 16.00-16.00l 288.00,0.00 c 8.848,0.00, 16.00,7.152, 16.00,16.00l0.00,32.00 C 512.00,56.848, 504.848,64.00, 496.00,64.00z M 496.00,256.00L 208.00,256.00 
			c-8.848,0.00-16.00-7.152-16.00-16.00l0.00-32.00 c0.00-8.848, 7.152-16.00, 16.00-16.00l 288.00,0.00 c 8.848,0.00, 16.00,7.152, 16.00,16.00l0.00,32.00 C 512.00,248.848, 504.848,256.00, 496.00,256.00z M 112.00,480.00L 16.00,480.00 C 7.152,480.00,0.00,472.848,0.00,464.00l0.00-96.00 
			c0.00-8.848, 7.152-16.00, 16.00-16.00l 96.00,0.00 c 8.848,0.00, 16.00,23.152, 16.00,32.00L 128.00,464.00 C 128.00,472.848, 120.848,480.00, 112.00,480.00z M 96.00,400.00c0.00-8.848-7.152-16.00-16.00-16.00L 48.00,384.00 C 39.152,384.00, 32.00,391.152, 32.00,400.00L 32.00,432.00 
			c0.00,8.848, 7.152,16.00, 16.00,16.00l 32.00,0.00 c 8.848,0.00, 16.00-7.152, 16.00-16.00L 96.00,400.00 z M 112.00,288.00L 16.00,288.00 c-8.848,0.00-16.00-7.152-16.00-16.00l0.00-96.00 c0.00-8.848, 7.152-16.00, 16.00-16.00l 96.00,0.00 c 8.848,0.00, 16.00,7.152, 16.00,16.00l0.00,96.00 
			C 128.00,280.848, 120.848,288.00, 112.00,288.00z M 96.00,208.00c0.00-8.848-7.152-16.00-16.00-16.00L 48.00,192.00 c-8.848,0.00-16.00,7.152-16.00,16.00l0.00,32.00 c0.00,8.848, 7.152,16.00, 16.00,16.00l 32.00,0.00 c 8.848,0.00, 16.00-7.152, 16.00-16.00L 96.00,208.00 z
			 M 496.00,448.00L 208.00,448.00 c-8.848,0.00-16.00-7.152-16.00-16.00l0.00-32.00 c0.00-8.848, 7.152-16.00, 16.00-16.00l 288.00,0.00 c 8.848,0.00, 16.00,7.152, 16.00,16.00L 512.00,432.00 C 512.00,440.848, 504.848,448.00, 496.00,448.00z"  />
<glyph unicode="&#xe095;" d="M 112.00,288.00L 16.00,288.00 c-8.848,0.00-16.00-7.152-16.00-16.00l0.00-96.00 c0.00-8.848, 7.152-16.00, 16.00-16.00l 96.00,0.00 c 8.848,0.00, 16.00,7.152, 16.00,16.00l0.00,96.00 
			C 128.00,280.848, 120.848,288.00, 112.00,288.00z M 96.00,208.00c0.00-8.848-7.152-16.00-16.00-16.00L 48.00,192.00 c-8.848,0.00-16.00,7.152-16.00,16.00l0.00,32.00 c0.00,8.848, 7.152,16.00, 16.00,16.00l 32.00,0.00 c 8.848,0.00, 16.00-7.152, 16.00-16.00L 96.00,208.00 z
			 M 112.00,480.00L 16.00,480.00 C 7.152,480.00,0.00,472.848,0.00,464.00l0.00-96.00 c0.00-8.848, 7.152-16.00, 16.00-16.00l 96.00,0.00 c 8.848,0.00, 16.00,23.152, 16.00,32.00L 128.00,464.00 C 128.00,472.848, 120.848,480.00, 112.00,480.00z M 96.00,400.00c0.00-8.848-7.152-16.00-16.00-16.00L 48.00,384.00 
			C 39.152,384.00, 32.00,391.152, 32.00,400.00L 32.00,432.00 c0.00,8.848, 7.152,16.00, 16.00,16.00l 32.00,0.00 c 8.848,0.00, 16.00-7.152, 16.00-16.00L 96.00,400.00 z M 112.00,96.00L 16.00,96.00 c-8.848,0.00-16.00-7.152-16.00-16.00l0.00-96.00 c0.00-8.848, 7.152-16.00, 16.00-16.00l 96.00,0.00 
			c 8.848,0.00, 16.00,7.152, 16.00,16.00l0.00,96.00 C 128.00,88.848, 120.848,96.00, 112.00,96.00z M 96.00,16.00c0.00-8.848-7.152-16.00-16.00-16.00L 48.00,0.00 c-8.848,0.00-16.00,7.152-16.00,16.00l0.00,32.00 c0.00,8.848, 7.152,16.00, 16.00,16.00l 32.00,0.00 
			c 8.848,0.00, 16.00-7.152, 16.00-16.00L 96.00,16.00 z M 304.00,288.00l-96.00,0.00 c-8.848,0.00-16.00-7.152-16.00-16.00l0.00-96.00 c0.00-8.848, 7.152-16.00, 16.00-16.00l 96.00,0.00 c 8.848,0.00, 16.00,7.152, 16.00,16.00l0.00,96.00 
			C 320.00,280.848, 312.848,288.00, 304.00,288.00z M 288.00,208.00c0.00-8.848-7.152-16.00-16.00-16.00l-32.00,0.00 c-8.848,0.00-16.00,7.152-16.00,16.00l0.00,32.00 c0.00,8.848, 7.152,16.00, 16.00,16.00l 32.00,0.00 c 8.848,0.00, 16.00-7.152, 16.00-16.00
			L 288.00,208.00 z M 304.00,96.00l-96.00,0.00 c-8.848,0.00-16.00-7.152-16.00-16.00l0.00-96.00 c0.00-8.848, 7.152-16.00, 16.00-16.00l 96.00,0.00 c 8.848,0.00, 16.00,7.152, 16.00,16.00l0.00,96.00 C 320.00,88.848, 312.848,96.00, 304.00,96.00z M 288.00,16.00
			c0.00-8.848-7.152-16.00-16.00-16.00l-32.00,0.00 c-8.848,0.00-16.00,7.152-16.00,16.00l0.00,32.00 c0.00,8.848, 7.152,16.00, 16.00,16.00l 32.00,0.00 c 8.848,0.00, 16.00-7.152, 16.00-16.00L 288.00,16.00 z M 496.00,288.00l-96.00,0.00 c-8.848,0.00-16.00-7.152-16.00-16.00
			l0.00-96.00 c0.00-8.848, 7.152-16.00, 16.00-16.00l 96.00,0.00 c 8.848,0.00, 16.00,7.152, 16.00,16.00l0.00,96.00 C 512.00,280.848, 504.848,288.00, 496.00,288.00z M 480.00,208.00c0.00-8.848-7.152-16.00-16.00-16.00l-32.00,0.00 c-8.848,0.00-16.00,7.152-16.00,16.00
			l0.00,32.00 c0.00,8.848, 7.152,16.00, 16.00,16.00l 32.00,0.00 c 8.848,0.00, 16.00-7.152, 16.00-16.00L 480.00,208.00 z M 496.00,480.00l-96.00,0.00 c-8.848,0.00-16.00-7.152-16.00-16.00l0.00-96.00 c0.00-8.848, 7.152-16.00, 16.00-16.00l 96.00,0.00 c 8.848,0.00, 16.00,23.152, 16.00,32.00L 512.00,464.00 
			C 512.00,472.848, 504.848,480.00, 496.00,480.00z M 480.00,400.00c0.00-8.848-7.152-16.00-16.00-16.00l-32.00,0.00 c-8.848,0.00-16.00,7.152-16.00,16.00L 416.00,432.00 c0.00,8.848, 7.152,16.00, 16.00,16.00l 32.00,0.00 c 8.848,0.00, 16.00-7.152, 16.00-16.00L 480.00,400.00 z
			 M 304.00,480.00l-96.00,0.00 c-8.848,0.00-16.00-7.152-16.00-16.00l0.00-96.00 c0.00-8.848, 7.152-16.00, 16.00-16.00l 96.00,0.00 c 8.848,0.00, 16.00,23.152, 16.00,32.00L 320.00,464.00 C 320.00,472.848, 312.848,480.00, 304.00,480.00z M 288.00,400.00
			c0.00-8.848-7.152-16.00-16.00-16.00l-32.00,0.00 c-8.848,0.00-16.00,7.152-16.00,16.00L 224.00,432.00 c0.00,8.848, 7.152,16.00, 16.00,16.00l 32.00,0.00 c 8.848,0.00, 16.00-7.152, 16.00-16.00L 288.00,400.00 z M 496.00,96.00l-96.00,0.00 c-8.848,0.00-16.00-7.152-16.00-16.00l0.00-96.00 
			c0.00-8.848, 7.152-16.00, 16.00-16.00l 96.00,0.00 c 8.848,0.00, 16.00,7.152, 16.00,16.00l0.00,96.00 C 512.00,88.848, 504.848,96.00, 496.00,96.00z M 480.00,16.00c0.00-8.848-7.152-16.00-16.00-16.00l-32.00,0.00 c-8.848,0.00-16.00,7.152-16.00,16.00
			l0.00,32.00 c0.00,8.848, 7.152,16.00, 16.00,16.00l 32.00,0.00 c 8.848,0.00, 16.00-7.152, 16.00-16.00L 480.00,16.00 z"  />
<glyph unicode="&#xe01b;" d="M0.00,480.00L 224.00,480.00L 224.00,256.00L0.00,256.00zM 288.00,480.00L 512.00,480.00L 512.00,256.00L 288.00,256.00zM0.00,192.00L 224.00,192.00L 224.00-32.00L0.00-32.00zM 288.00,192.00L 512.00,192.00L 512.00-32.00L 288.00-32.00z"  />
<glyph unicode="&#xe023;" d="M 384.00,416.00l-64.00,0.00 L 320.00,448.00 c0.00,17.60-14.40,32.00-32.00,32.00l-64.00,0.00 c-17.602,0.00-32.00-14.40-32.00-32.00l0.00-32.00 l-64.00,0.00 l0.00-64.00 l 256.00,0.00 L 384.00,416.00 z M 288.00,416.00l-64.00,0.00 L 224.00,447.943 
		c 0.017,0.019, 0.036,0.039, 0.057,0.057l 63.884,0.00 c 0.021-0.018, 0.041-0.038, 0.059-0.057L 288.00,416.00 L 288.00,416.00zM 432.00,416.00l-32.00,0.00 l0.00-32.00 l 16.00,0.00 l0.00-384.00 L 96.00,0.00 L 96.00,384.00 l 16.00,0.00 L 112.00,416.00 L 80.00,416.00 c-8.801,0.00-16.00-7.20-16.00-16.00l0.00-416.00 c0.00-8.80, 7.199-16.00, 16.00-16.00l 352.00,0.00 c 8.80,0.00, 16.00,7.20, 16.00,16.00L 448.00,400.00 
		C 448.00,408.80, 440.80,416.00, 432.00,416.00z"  />
<glyph unicode="&#xe024;" d="M 384.00,416.00l-64.00,0.00 L 320.00,448.00 c0.00,17.60-14.40,32.00-32.00,32.00l-64.00,0.00 c-17.602,0.00-32.00-14.40-32.00-32.00l0.00-32.00 l-64.00,0.00 l0.00-64.00 l 256.00,0.00 L 384.00,416.00 z M 288.00,416.00l-64.00,0.00 L 224.00,447.943 
		c 0.017,0.019, 0.036,0.039, 0.057,0.057l 63.884,0.00 c 0.021-0.018, 0.041-0.038, 0.059-0.057L 288.00,416.00 L 288.00,416.00zM 432.00,416.00l-32.00,0.00 l0.00-32.00 l 16.00,0.00 l0.00-384.00 L 96.00,0.00 L 96.00,384.00 l 16.00,0.00 L 112.00,416.00 L 80.00,416.00 c-8.801,0.00-16.00-7.20-16.00-16.00l0.00-416.00 c0.00-8.80, 7.199-16.00, 16.00-16.00l 352.00,0.00 c 8.80,0.00, 16.00,7.20, 16.00,16.00L 448.00,400.00 
		C 448.00,408.80, 440.80,416.00, 432.00,416.00zM 128.00,288.00L 384.00,288.00L 384.00,256.00L 128.00,256.00zM 128.00,192.00L 384.00,192.00L 384.00,160.00L 128.00,160.00zM 128.00,96.00L 384.00,96.00L 384.00,64.00L 128.00,64.00z"  />
<glyph unicode="&#xe097;" d="M 482.768,359.328l-5.024-5.024l-91.616,91.664l 5.008,5.008c0.00,0.00, 21.936,29.008, 53.136,29.008
	c 13.744,0.00, 29.312-5.648, 45.584-21.92C 543.52,404.40, 482.768,359.328, 482.768,359.328z M 447.664,324.208L 135.744,12.144l0.00-0.016 l-0.032-0.016L 135.68,12.112 L0.00-32.00
	l 44.096,135.744l0.00,0.00 l0.00,0.016l0.00,0.048l 0.032,0.00 L 356.064,415.888l 4.032-4.048 M 44.16,12.176l 67.792,19.504l-46.304,49.312L 44.16,12.176z"  />
<glyph unicode="&#xe098;" d="M 399.712,324.512c 5.968-5.968, 15.648-5.968, 21.60,0.00l 84.528,66.544
	c 14.064-44.224, 4.128-94.432-30.96-129.52c-33.472-33.488-80.736-44.032-123.424-32.768l-100.256-100.256c 11.264-42.704, 0.704-89.952-32.752-123.424
	c-35.088-35.088-85.312-45.024-129.536-30.96l 66.576,84.512c 5.968,5.984, 5.968,15.648,0.00,21.616l-43.20,43.184c-5.968,5.968-15.648,5.968-21.60,0.00
	l-84.528-66.544c-14.064,44.224-4.128,94.416, 30.944,129.504c 33.488,33.488, 80.736,44.048, 123.44,32.768l 100.272,100.272
	c-11.28,42.688-0.72,89.952, 32.736,123.424c 35.088,35.088, 85.312,45.024, 129.552,30.976l-66.576-84.544c-5.952-5.952-5.952-15.632,0.00-21.584
	L 399.712,324.512z"  />
</font>
</defs>
</svg>
